<svg xmlns="http://www.w3.org/2000/svg" width="285.216" height="70.721" viewBox="0 0 285.216 70.721">
  <g id="Layer_2" data-name="Layer 2" transform="translate(0 0.001)">
    <g id="Layer_1" data-name="Layer 1" transform="translate(0 -0.001)">
      <path id="Path_1" data-name="Path 1" d="M109.679,28.381a15.834,15.834,0,0,1-15.6,15.646c-8.2,0-13.718-5.532-13.718-13.768V0H73.35V30.666c0,11.6,8,19.695,19.463,19.695a20.271,20.271,0,0,0,16.9-8.693v7.585h7.009V0h-7.041Z" transform="translate(-27.445 0.001)" fill="#380966"/>
      <path id="Path_2" data-name="Path 2" d="M176.145,0a20.252,20.252,0,0,0-16.866,8.762V1.126H152.27V50.379h7.009V22a15.827,15.827,0,0,1,15.6-15.646,14.87,14.87,0,0,1,4.381.595l.363.113.645-6.671-.275-.056A20.321,20.321,0,0,0,176.145,0Z" transform="translate(-56.975 0.001)" fill="#380966"/>
      <path id="Path_3" data-name="Path 3" d="M230.575,0a20.252,20.252,0,0,0-16.866,8.762V1.126H206.7V50.379h7.009V22a15.833,15.833,0,0,1,15.6-15.646c8.2,0,13.718,5.532,13.718,13.768V50.379h7.041V19.744C250.07,8.135,242.034,0,230.575,0Z" transform="translate(-77.341 0.001)" fill="#380966"/>
      <path id="Path_4" data-name="Path 4" d="M311.185,0A25.383,25.383,0,0,0,285.62,25.753c0,14.682,11.265,25.753,26.222,25.753,8.605,0,15.189-3.248,20.709-10.214l.182-.225-4.155-3.886-.213.238c-4.744,5.332-10.195,7.923-16.66,7.923a18.775,18.775,0,0,1-18.906-17.4h42.625l.05-.244a15.84,15.84,0,0,0,.338-3.167C335.812,10.545,325.223,0,311.185,0ZM293.036,21.967a18.739,18.739,0,0,1,18.149-15.8c9.056,0,16.121,6.477,17.3,15.8Z" transform="translate(-106.87 0.001)" fill="#380966"/>
      <path id="Path_5" data-name="Path 5" d="M401.055,0A25.383,25.383,0,0,0,375.49,25.753c0,14.682,11.265,25.753,26.222,25.753,8.605,0,15.189-3.248,20.709-10.214l.182-.225-4.155-3.886-.213.238c-4.744,5.332-10.195,7.923-16.666,7.923a18.775,18.775,0,0,1-18.875-17.4h42.625l.056-.244a15.84,15.84,0,0,0,.338-3.167C425.682,10.545,415.093,0,401.055,0ZM382.906,21.967a18.739,18.739,0,0,1,18.149-15.8c9.056,0,16.121,6.477,17.311,15.8Z" transform="translate(-140.497 0.001)" fill="#380966"/>
      <path id="Path_6" data-name="Path 6" d="M8.311,68.09A21.629,21.629,0,0,1,0,60.706L4.381,55.7q5.8,8.618,15.12,8.611,13.042-.025,13.042-15.445V6.409H6.884V0H39.853V48.564q0,11.021-5.157,16.572T19.4,70.719a24.063,24.063,0,0,1-11.115-2.6" transform="translate(0 0.001)" fill="#380966"/>
    </g>
  </g>
</svg>
