<svg xmlns="http://www.w3.org/2000/svg" width="535.627" height="476.318" viewBox="0 0 535.627 476.318">
  <g id="Layer_2" data-name="Layer 2" transform="translate(-0.028 -32.873)">
    <g id="Слой_1" data-name="Слой 1" transform="translate(0.028 32.873)">
      <path id="Path_64825" data-name="Path 64825" d="M861.535,457.312c1.9,1.111,2.584,2.843,3.272,4.926,2.434,7.277,7.065,10.048,14.71,9.18a57.314,57.314,0,0,0,7.06-1.478c1.215-.295,2.476-.569,2.657-2.29.1-.936,1.111-1.3,2.016-1.3,4.016,0,6.755-2.109,8.968-5.22a34.233,34.233,0,0,1,2.657-3.158c.574-.636,1.261-1.339,2.212-.873s.946,1.985.951,2.238c.078,2.734-2.91,4.207-2.45,5.231.352.791,2.155,0,4.734.517,4.187.837,6.776,4.414,7.665,5.623a15.063,15.063,0,0,1,1.938,3.572c1.065,2.786.817,5.686.517,8.425-1.173,10.637-8.6,18.871-19.166,18.359a20.616,20.616,0,0,1-9.7-3.236q-1.659-1-3.292-2.036c-2.207-1.4-4.083-1.147-6,.734-3.551,3.479-7,7.04-11.805,9.014-8.1,3.329-15.506,2.1-22.437-2.812-1.184-.843-1.907-.977-3.1-.145-2.863,1.974-6.523,2.429-9.371,4.135-2.729,1.607-2.807,5.841-5.2,8.27-4.238,4.311-9.076,6.869-15.279,5.241a9.785,9.785,0,0,1-7.371-9.733,18.816,18.816,0,0,1,3.323-11.459c.718-.992.641-1.5-.212-2.326-8.973-8.668-9.257-19.052-5.753-30.092a47.364,47.364,0,0,1,7.36-13.563,26.743,26.743,0,0,1-7.644.517c-4.414-.238-8.44-3.246-9.624-7.045a6.289,6.289,0,0,1,.057-4.042c.439-1.287,1.06-2.465,2.471-2.729s2.068.935,2.765,1.918c2.217,3.1,4.853,3.892,9.381,2.781a9.346,9.346,0,0,0,2.435-.832c2.011-1.153,3.959-2.414,6.171-3.778a12.245,12.245,0,0,1-3.525-10.374,11.056,11.056,0,0,1,5.034-8.316,2.159,2.159,0,0,1,2.843-.124,2.244,2.244,0,0,1,.475,2.832c-.486,1.194-1.122,2.331-1.592,3.525-1.494,3.768-.181,6.678,3.618,7.991a19.44,19.44,0,0,0,6.843.91,39.8,39.8,0,0,1,12.245,1.489,20.091,20.091,0,0,1,9.981,6.973c3.768,5.443,3.339,11.619,2.946,17.915C858.015,461.38,858.977,458.413,861.535,457.312Z" transform="translate(-383.074 -241.32)"/>
      <path id="Path_64826" data-name="Path 64826" d="M544.631,248.683a40.207,40.207,0,0,1,3.4-8.244c.6-.992,1.215-2.367,2.683-1.928s.91,1.861.951,2.92c.124,3.556-1.075,6.926-1.649,10.384-.651,3.959-.253,7.877-.191,11.857.718-7.464,5.3-13.718,6.409-21.047.222-1.463.755-3.024,2.739-2.75,1.907.264,2.331,1.83,2.5,3.432.517,4.766-1.2,9.128-2.486,13.573-.594,2.067-1.416,4.068-.987,6.642a49.617,49.617,0,0,0,7.045-9.846c.667-1.142,1.178-2.584,2.7-2.254s2.109,1.773,2.067,3.437a12.284,12.284,0,0,1-2.14,5.99q-2.8,4.652-5.567,9.3a2.873,2.873,0,0,0,.269,3.51,40.566,40.566,0,0,1,7.479,22.38c.093,4.8.61,9.6.429,14.415a37.725,37.725,0,0,1-.625,6.394c-1.091,5.169-6.911,10.286-13.439,8.751a7.289,7.289,0,0,1-5.536-7.877,50.2,50.2,0,0,0-.811-18.4c-1.969-9.35-5.515-18.225-7.975-27.425a83.174,83.174,0,0,1-3.127-26.216,6.2,6.2,0,0,1,.424-1.99c.419-1,.7-2.269,2.161-2.217s1.69,1.282,2,2.336C543.794,245.267,544.135,246.766,544.631,248.683Z" transform="translate(-260.259 -153.333)" fill="#d8b8d0"/>
      <path id="Path_64827" data-name="Path 64827" d="M616.593,244.646c-.961-4.233-1.819-8.394-2.388-12.632a12.223,12.223,0,0,1,.517-6.58c.382-.9.9-1.649,2.067-1.633a2.2,2.2,0,0,1,2.29,1.716c.6,2.316,1.08,4.652,1.6,7.009a55.109,55.109,0,0,0,5.841,14.664c.713-3.525-.057-6.952-.414-10.368-.424-4.083-1.173-8.13-1.68-12.2a8.076,8.076,0,0,1,.414-2.522,2.2,2.2,0,0,1,2.067-1.933c1.272-.1,1.783.625,2.171,1.737,1.478,4.233,2.068,8.647,2.967,13.015.77,3.84,1.468,7.686,1.866,11.609.465-6.037,1.638-12.022.8-18.121a8.087,8.087,0,0,1,.212-4.088c.382-.992.894-1.918,2.1-2.021s1.819.765,2.321,1.716a14.266,14.266,0,0,1,1.4,5.453,127.449,127.449,0,0,1,.191,23.161c-.352,3.758.145,7.546.31,11.319.248,5.758.145,11.536.041,17.3a49.884,49.884,0,0,0,2.238,15.987,2.242,2.242,0,0,1-1.251,3.132,18.545,18.545,0,0,1-11.774,1.83c-2.8-.434-4.414-2.553-5.132-5.231a36.345,36.345,0,0,1-1.628-11.159c.248-5.215-1.189-10.12-2.8-15.025a21.414,21.414,0,0,1-.165-12.2c.377-1.452.145-2.036-1.147-2.812a17.6,17.6,0,0,1-8.523-11.738c-.331-1.52-.176-2.894,1.277-3.515,1.551-.656,2,.811,2.61,1.835C615.513,243.137,616.071,243.881,616.593,244.646Z" transform="translate(-295.187 -144.504)" fill="#d8b8d0"/>
      <path id="Path_64828" data-name="Path 64828" d="M409.731,585.6a16.793,16.793,0,0,1-7.3-1.928,6.631,6.631,0,0,1-2.967-2.77c-.341-.682-.786-1.551-.052-2.135s1.184.357,1.664.729a12.922,12.922,0,0,0,11.661,2.408c3.22-.827,6.037-2.336,6.807-5.9a9.053,9.053,0,0,0-4.476-9.412,14.617,14.617,0,0,0-6.3-2.124c-.579-.041-1.37.088-1.458-.7-.109-.92.76-.992,1.4-1.184a5.72,5.72,0,0,1,3.049.243c4.9,1.2,8.57,3.928,10.384,8.751,1.7,4.5.227,8.787-3.773,11.511A15.736,15.736,0,0,1,409.731,585.6Z" transform="translate(-192.789 -309.883)" fill="#f8ad28"/>
      <path id="Path_64829" data-name="Path 64829" d="M917.164,479.935c-1.985,2.646-3.99,5.272-7.438,7.309a32.912,32.912,0,0,0-1.716-19.874C911.716,471.081,914.119,475.738,917.164,479.935Z" transform="translate(-438.703 -263.943)" fill="#6b46fb"/>
      <path id="Path_64830" data-name="Path 64830" d="M545.672,572.283c-.222-.129-.439-.279-.667-.393-10.7-5.2-13.893-12.059-9.154-22.9,2.781-6.368,2.76-11.888.8-18.39-6.414-21.192-6.973-43.055-5.83-65,1.287-24.768,6.719-48.87,11.816-73.034.987-4.714,1.7-9.505,3.065-14.105,1.225-4.135,3.453-7.794,8.27-8.663a15.009,15.009,0,0,1,11.919,2.993c1.551,1.142,1.835,2.894,1.737,4.652-.295,5.319-.171,10.668-1.179,15.93s-.724,10.472-.956,15.7c-.631,14.1-1.99,28.169-1.887,42.3a29.482,29.482,0,0,0,1.163,9.169,12.57,12.57,0,0,0,5.654,7.133c5.975,3.5,12.467,5.474,19.243,3.07,3.954-1.4,6.637-4.853,8.306-8.751,3.143-7.329,2.993-15.093,2.62-22.84-.7-14.586-5.169-28.33-9.118-42.239-2.584-9.071-4.057-18.452-5.918-27.72-.646-3.225,1.551-5.272,3.871-6.719,4.559-2.817,9.443-2.8,14.379-.832a4.246,4.246,0,0,1,2.021,2.228c6.993,12.353,11.6,25.657,15.971,39.111a207.266,207.266,0,0,1,9.593,46.389,151.7,151.7,0,0,1-7.9,63.306,244.365,244.365,0,0,1-10.715,26.278,14.347,14.347,0,0,0,0,12.922c2.067,4.507,4.709,8.745,5.448,13.847.967,6.652-1.406,9.934-8.11,10.1-3.871.1-7.722.243-11.562.719a3.68,3.68,0,0,1-2.822,1.034c-14.664.1-29.348.388-43.815-2.677C549.7,574.4,547.27,574.273,545.672,572.283Z" transform="translate(-256.24 -212.193)" fill="#6c46fd"/>
      <path id="Path_64831" data-name="Path 64831" d="M860.63,555.805c-5.494-.439-10.208-.879-14.932-1.163-1.494-.093-1.773-.827-2.005-2.068-1.406-7.52-2.951-15.015-4.316-22.546A4.261,4.261,0,0,0,837.1,526.9c-6.957-4.249-12.922-9.6-16.462-17.057-3.939-8.223-2.786-16.6.155-24.861a52.689,52.689,0,0,1,2.367-5.169c1.985-4.094,4.135-7.67,9.578-8a12.846,12.846,0,0,0,8.689-4.683,2.471,2.471,0,0,1,2.315-.8,47.206,47.206,0,0,1,11.568,2.543c1.3.47,1.664.925,1.034,2.409-2.982,7.1-.785,16.979,4.978,22.4,1.24,1.168,1.37,1.732.031,2.874a67.717,67.717,0,0,0-5.944,5.737c-5.686,6.249-5.034,13.986,2.005,18.607A16.451,16.451,0,0,1,864,529.4c2.424,6.43,5.045,12.792,7.722,19.124a2.527,2.527,0,0,1-.894,3.52C867.566,554.492,864.108,556.3,860.63,555.805Z" transform="translate(-395.271 -263.42)" fill="#756162"/>
      <path id="Path_64832" data-name="Path 64832" d="M363.921,518.293c2.584,3.515,5.406,6.952,6.9,11.1,3.391,9.381,5.773,18.917,2.424,28.867-.879,2.615-2.067,5.112-4.5,6.745a3.942,3.942,0,0,0-1.623,3.339c-.15,3.52-.439,7.035-.558,10.549a4.063,4.063,0,0,1-.491,1.964,4.43,4.43,0,0,1-2.223,1.8c-3.029,1.292-6.161.165-12.141.367a14.11,14.11,0,0,1-5.365-.388,7.361,7.361,0,0,1-3.489-1.938c-.806-.91-1.147-2.016-1.122-7.345,0-3.349-.3-6.719-.481-10.038-.14-2.528-.992-3.065-3.484-2.228-4.5,1.514-8.637-.124-10.394-4.135-1.711-3.9-.072-8.1,4.052-10.4,1.752-.77,3.551-.088,5.324-.145,3.137-.1,3.587-.662,2.176-3.453a31.528,31.528,0,0,1-3.618-15.883c.155-3.5.517-3.9,4.109-3.969,3.1-.062,6.171.176,9.247-.383A21.062,21.062,0,0,0,356.1,520,10.648,10.648,0,0,1,363.921,518.293Z" transform="translate(-157.855 -288.454)" fill="#b9b7b8"/>
      <path id="Path_64833" data-name="Path 64833" d="M560,770.47c9.707,3.406,19.853,3.918,29.978,4.342a221.968,221.968,0,0,0,22.939-.109,146.1,146.1,0,0,0,1.644,15.382c.289,1.483-.641,1.592-1.551,1.742a102.194,102.194,0,0,1-14.591,1.706c-8.27.171-16.54.119-24.81,0a56.7,56.7,0,0,1-11.025-1.432c-1.07-.227-1.659-.548-1.711-1.783C560.63,783.7,560.29,777.086,560,770.47Z" transform="translate(-270.568 -410.38)" fill="#f8ac26"/>
      <path id="Path_64834" data-name="Path 64834" d="M364.535,508.665a37.1,37.1,0,0,0-9.567,3.468c-4.729,2.584-10.136,2.336-15.372,2.068-2.326-.114-3.06.45-3.065,2.884a32.091,32.091,0,0,0,3.939,16.292c.641,1.116,1.277,2.347.517,3.618s-2.067.434-3.07.434a17.124,17.124,0,0,1-5.861-.517,10.514,10.514,0,0,0-1.4-3.851,28.733,28.733,0,0,1-2.29-16.845,18.361,18.361,0,0,1,6.011-10.854c.765-.7,1.52-1.323,1.437-2.558-.062-.956-.3-2.367,1-2.543,1.153-.15,1.034,1.359,1.721,2.3.651-1.06,1.21-2.067,1.871-3.013.517-.77,1.163-1.669,2.279-1.277s.45,1.463.574,2.465c1.664-.439,3.282-.884,4.915-1.3a24.3,24.3,0,0,1,15.413,1.287C367.724,502.463,368.065,505.9,364.535,508.665Z" transform="translate(-158.468 -278.826)" fill="#f8ac26"/>
      <path id="Path_64835" data-name="Path 64835" d="M920.529,944.4a.465.465,0,0,0-.057.455h-6.719a1.7,1.7,0,0,1-.083-.429,6.316,6.316,0,0,1,6.859-.026Z" transform="translate(-441.437 -493.926)" fill="#676767"/>
      <path id="Path_64836" data-name="Path 64836" d="M755.594,583.781a7.8,7.8,0,0,1,1.266-4.135,102.731,102.731,0,0,0,13.2-42.549c.052-.594.2-1.184.274-1.783.465-3.448.77-6.606-3.013-8.885a13.51,13.51,0,0,1-5.629-7.236c-.517-1.551-1.607-1.246-2.7-1.147a307.335,307.335,0,0,1-36.894.966,47.333,47.333,0,0,1-14.472-2.326c-8.471-3-13.4-9.821-13.439-18.788-.052-10.678,2.755-20.768,6.616-30.583,5.856-14.9,12.084-29.622,19.641-43.763a15.3,15.3,0,0,1,8.368-7.474,37.368,37.368,0,0,0,8.937-4.523c2.734-2.031,5.634-.713,7.009,2.584a22.646,22.646,0,0,1,.3,18.059c-3.8,9.242-8.353,18.132-12.487,27.213a89.86,89.86,0,0,0-5.773,15.723c-.842,3.406-.553,3.949,3.189,4.089a62.807,62.807,0,0,0,18.933-1.685A53.934,53.934,0,0,0,772.3,465.015a27.75,27.75,0,0,1,12.348-6.683c2.765-.672,5.474.382,8.208.248,6.357-.326,12.539-1.153,17.165-6.264,2.61-2.879,2.176-6.616,2.776-10.007,2.533-14.322,2.068-28.826,1.954-43.267-.083-10.389-1.551-20.726-2.693-31.069-1.1-9.9-2.316-19.786-3.4-29.684-1.483-13.511-1.008-26.986-.553-40.486.15-4.466.093-8.937.517-13.408.4-4.042,1.266-5.257,5.122-6.3A75.376,75.376,0,0,0,824,274.673c3.546-1.551,5.076-.558,6.058,3.189,6.668,25.513,9.686,51.687,13.625,77.654a472.034,472.034,0,0,1,4.946,48.761c.636,13.506,1.287,27.022.842,40.528a229.659,229.659,0,0,1-6.787,46.379c-1.576,6.487-3.8,12.829-2.879,19.765a262.37,262.37,0,0,1,2.145,37.85c-.274,21.61-8.368,40.316-20.98,57.429a9.971,9.971,0,0,0-.517.884c-.305.31-.615.191-.884-.036-3.231-2.8-7.236-3.809-11.206-4.947-10.585-3.034-21.181-5.908-31.793-8.719a38.426,38.426,0,0,1-10.585-4.652C762.711,586.691,759.077,585.362,755.594,583.781Z" transform="translate(-335.394 -170.505)" fill="#f8ac26"/>
      <path id="Path_64837" data-name="Path 64837" d="M234.69,666.974q0-4.419.026-8.844a17.921,17.921,0,0,1,4.409-7.2c7.174-7.784,15.02-14.989,21.662-23.218a164.552,164.552,0,0,0,11.04-14.617,31.163,31.163,0,0,1,6.507-6.962,11.971,11.971,0,0,1,7.35-2.807c1.633-.072,3.272,0,4.905-.124,4.543-.274,4.585-.284,5.577-4.626.419-1.825,1-2.584,3.148-1.964,7.076,1.98,14.235,3.618,21.5.693.92-.377,1.344.119,1.9.78,9.82,11.567,22.484,15.465,37.215,13.594,3.1-.4,5.277-2.372,7.055-4.822,5.587-7.681,7.67-16.467,7.856-25.766.155-7.577.093-15.16,0-22.742-.026-1.856.434-2.533,2.378-2.657,4.884-.315,9.743-.967,14.622-1.354,2.817-.227,4.7,1.168,5.83,3.773,5.82,13.4,9.118,27.358,7.665,41.97-1.654,16.457-8.187,30.428-23.176,39.029a55.093,55.093,0,0,1-31.772,7.185c-3.385-.233-3.272-.2-2.936,3.137a124.834,124.834,0,0,1-.719,33.193c-.786,4.678-1.437,9.407-5.768,12.162a53.445,53.445,0,0,1-20.773,8c-13.211,2.036-26.6,1.85-39.8,3.758a60.763,60.763,0,0,1-21.336-.8,9.389,9.389,0,0,1-2.238-.662c-2.652-1.323-2.734-2.067-.884-4.393a81.144,81.144,0,0,0,9.092-14.529c-3.535,0-6.678.165-9.82-.036-7.066-.444-13.356-2.584-17.506-8.838C235.651,674.158,235.171,670.566,234.69,666.974Z" transform="translate(-113.4 -305.948)" fill="#b91649"/>
      <path id="Path_64838" data-name="Path 64838" d="M621.544,494.818a23.88,23.88,0,0,1-2.91-.243,5.216,5.216,0,0,0-4.7,1.266,13.678,13.678,0,0,1-13.361,2.548c-2.91-.941-5.412-.45-8.384.419-6.053,1.768-12.446,3.013-18.349-1.075-5.582-3.866-5.53-9.18.238-12.751,1.892-1.179,3.918-2.15,5.908-3.174,1.633-.837,2.1-1.742,1.21-3.659-3.417-7.391-1.489-16.948,4.264-22.685a14.508,14.508,0,0,1,9.112-4.4c2.848-.233,3.329-1.8,3.618-4.026.129-1.034-.419-2.925,1.215-2.827,1.4.088,1.778,1.9,1.473,3.163-.729,3.024.775,3.51,3.349,4.161,8.916,2.254,13.743,8.73,16.1,17.181.615,2.186,1.607,3.272,3.665,3.665.517.093,1.034.2,1.52.295,5.913,1.106,9.443,5.22,9.526,11.092.057,4.45-4.238,9.392-9.211,10.487C624.288,494.575,622.732,494.663,621.544,494.818Z" transform="translate(-275.256 -252.75)"/>
      <path id="Path_64839" data-name="Path 64839" d="M811,873.357c2.915-.171,5.4,1.251,7.639,2.682,8.058,5.169,17.108,7.371,26.215,9.64,7.991,1.99,15.878,4.419,23.776,6.719a15.642,15.642,0,0,1,7.236,4.269c3.752,6.115,1.168,12.146-5.949,13.862H863.06a24.915,24.915,0,0,1-8.006-2.734c-10.58-5.479-21.192-10.947-31.529-16.871-4.874-2.77-8.906-6.657-12.777-10.668C808.1,877.513,808.293,875.688,811,873.357Z" transform="translate(-390.802 -460.081)"/>
      <path id="Path_64840" data-name="Path 64840" d="M865.622,810.671a4.332,4.332,0,1,1-4.406-4.256,4.332,4.332,0,0,1,4.406,4.256Z" transform="translate(-414.038 -427.746)" fill="#ba1848"/>
      <path id="Path_64841" data-name="Path 64841" d="M863.992,765.43a4.57,4.57,0,0,1,4.135,4.44,4.212,4.212,0,1,1-8.421-.238,4.259,4.259,0,0,1,4.286-4.2Z" transform="translate(-415.365 -407.945)" fill="#ba1848"/>
      <path id="Path_64842" data-name="Path 64842" d="M859.532,840.783a4.337,4.337,0,1,1-4.538-4.383A4.515,4.515,0,0,1,859.532,840.783Z" transform="translate(-411.091 -442.233)" fill="#ba1948"/>
      <path id="Path_64843" data-name="Path 64843" d="M523.365,950.345c1.551.129,1.034,1.339,1.034,2.155.036,6.885,0,13.775,0,20.675q-238.669,0-477.328.052c-1.938,0-2.419-.434-2.383-2.378.14-6.8.057-13.609.057-20.416l1.607-.057a17.007,17.007,0,0,1,5.587-.8H517.757A18.579,18.579,0,0,1,523.365,950.345Z" transform="translate(-21.604 -496.909)" fill="#6c46fd"/>
      <path id="Path_64844" data-name="Path 64844" d="M524.932,879.34c-.858,0-1.721.072-2.584.072H50.256c-.775,0-1.551-.036-2.326-.057,7.236-3.618,14.441-7.236,21.672-10.854q40.688-20.158,81.386-40.347l44.621-22.112a14.892,14.892,0,0,1,6.719-1.551c9.562-.036,19.124.109,28.676-.14,17.47-.45,34.946-.124,52.405-.61,14.2-.4,28.428.072,42.6-.486,14.369-.569,28.759.119,43.1-.626,4.8-.248,8.637,1.034,12.653,3.1q32.108,16.54,64.3,32.945,38.812,19.879,77.6,39.8C524.1,878.745,524.519,879.066,524.932,879.34Z" transform="translate(-23.171 -425.903)" fill="#b9b7b8"/>
      <path id="Path_64845" data-name="Path 64845" d="M596.748,518.487c.651-2.621.517-5.98.517-9.3a4.223,4.223,0,0,0-1.137-3.277,12.741,12.741,0,0,1-2.894-5.686c-.393-1.333-.879-1.757-2.372-1.442a5.979,5.979,0,0,1-7.019-5.169,5.765,5.765,0,0,1,5.629-6.394c1.3-.067,2.067-.31,2.4-1.669a5.383,5.383,0,0,1,2.068-2.584c4.393-4.057,8.378-8.425,10.637-14.095.584-1.468,1.266-1.323,2.181-.289a26.308,26.308,0,0,0,11.614,7.376c2.326.8,2.755,3.38,3.22,5.541s.92,3.913,3.928,3.794c2.135-.083,4.1,2.781,4.259,5.169a5.627,5.627,0,0,1-4.063,5.887c-1.768.388-2.15,1.158-2.207,2.786-.093,2.853-.517,5.82-2.46,7.98-2.414,2.714-2.321,5.649-1.426,8.642,2.352,7.856-4.611,14.028-12.079,12.4-2-.429-4.088-.455-5.991-1.333C597.668,524.984,596.706,523.469,596.748,518.487Z" transform="translate(-282.067 -264.143)" fill="#d8b8d0"/>
      <path id="Path_64846" data-name="Path 64846" d="M613.759,874.623a144.141,144.141,0,0,1-43.329-8.115c-1.551-.517-1.659-1.2-.9-2.424,1.442-2.341,2.915-4.652,4.3-7.05a33.816,33.816,0,0,0,4.43-12.56c.238-1.726.827-2.124,2.538-1.282,8.342,4.135,17.274,6.14,26.479,7.081a129.963,129.963,0,0,0,24.722.072c1.246-.109,1.727.476,1.985,1.5a41.368,41.368,0,0,0,7.629,15.087c1.147,1.489,1.034,2.119-.863,2.755C631.978,872.628,623.129,874.933,613.759,874.623Z" transform="translate(-274.95 -445.309)" fill="#fefefe"/>
      <path id="Path_64847" data-name="Path 64847" d="M497.215,844.145c-.207,2.264-1.463,2.874-3.618,2.481-9.712-1.773-18.059-5.98-24.536-13.568a19.171,19.171,0,0,1-2.941-4.833c-.62-1.416-.434-2.16,1.39-2.331a31.528,31.528,0,0,0,12.534-3.654,15.711,15.711,0,0,0,7.143-7.195c.615-1.349.956-1.38,2.14-.553,5.985,4.192,11.924,8.466,18.463,11.785a35.006,35.006,0,0,0,6.135,2.688c.651.186,1.375.45,1.551.977a1.033,1.033,0,0,1-.1.7,19.269,19.269,0,0,1-3.659,4.879c-.811.765-2.005,1.928-3.442,3.448-1.876-.517-3.385-.858-4.342-1.2-3.215-1.158-3.918-.822-5.112,2.429C498.3,841.524,498.466,843.116,497.215,844.145Z" transform="translate(-225.057 -431.38)" fill="#fefefe"/>
      <path id="Path_64848" data-name="Path 64848" d="M526.994,859.349c.315-1.034.4-1.711,1.034-2.068a2.95,2.95,0,0,1,2.321.129c1.887.76,3.737,1.613,5.6,2.424a17.752,17.752,0,0,1-4.569,4.362,22.038,22.038,0,0,1-5.525,2.956c-.811.284-2.341.806-2.646.351-.191-.284.171-.811.476-1.3a32.656,32.656,0,0,0,3.308-6.859Z" transform="translate(-252.768 -452.229)" fill="#6d47fd"/>
      <path id="Path_64849" data-name="Path 64849" d="M623.441,528.255c-.481-.15-3.675-1.168-4.977-3.013a2.734,2.734,0,0,1-.662-2.016,2.1,2.1,0,0,1,.341-.827,2.367,2.367,0,0,1,2.946-.987c2.393,1.065,4.652,2.455,7.236,3.055a1.876,1.876,0,0,1,1.328,2,1.663,1.663,0,0,1-.181.708,2.165,2.165,0,0,1-1.215.961C626.687,528.772,623.7,528.3,623.441,528.255Z" transform="translate(-298.489 -289.965)" fill="#fefdfd"/>
      <path id="Path_64850" data-name="Path 64850" d="M602.635,860.008c-.455,1.649-1.034,3.98-1.747,6.249a24.908,24.908,0,0,0-1.364,4.4,2.105,2.105,0,0,1-2.486,2.031,2.18,2.18,0,0,1-1.99-2.781,46.1,46.1,0,0,1,4.352-11.754,1.706,1.706,0,0,1,2.171-.925C602.593,857.573,602.691,858.416,602.635,860.008Z" transform="translate(-287.473 -452.242)" fill="#95b1dd"/>
      <path id="Path_64851" data-name="Path 64851" d="M618.279,866.463c-.2,2.915-.362,5.83-.589,8.74-.119,1.551-.982,2.44-2.553,2.233-1.452-.186-1.876-1.246-1.8-2.636.2-3.876,1.189-7.624,1.8-11.438.15-.936.548-1.752,1.551-1.752s1.473.817,1.551,1.757c.062,1.034,0,2.068,0,3.1Z" transform="translate(-296.331 -454.413)" fill="#95b1dd"/>
      <path id="Path_64852" data-name="Path 64852" d="M127.06,560.555a136.5,136.5,0,0,1-.171-22.82c.708-9.014,3.261-17.573,6.2-26.019.915-2.615,3.706-3.318,6.073-3.8A34.526,34.526,0,0,1,157,509c3.618,1.173,5.4,3.256,5.81,7.582a199.414,199.414,0,0,0,9.852,46.58c3.768,10.947,6.9,22.184,6.342,34.036-.517,10.441-3.453,19.558-12.663,25.781-5.99,4.047-12.694,5.169-19.641,5.375a45.194,45.194,0,0,1-17.082-2.822c-.388,1.313.32,2.388.636,3.473,5.241,18.183,9.045,36.7,13.17,55.16.837,3.721.7,3.747,4.616,3.36,7.81-.775,15.651-.729,23.481-.812a5.639,5.639,0,0,1,5.169,2.848c5.065,8.348,8.435,17.279,9,27.125a3.812,3.812,0,0,1-2.321,3.7,19.875,19.875,0,0,1-8.807,2.7c-9.624.413-18.809,3.2-28.159,5.034a199.754,199.754,0,0,1-58.329,2.75c-5.866-.579-11.836-1.344-16.922-4.91-1.509-1.059-3.1-.687-4.652.1-3.38,1.7-6.8,3.313-10.167,5.039-1.85.946-3.52.894-4.9-.682a3.427,3.427,0,0,1,.047-4.745c1.747-1.928.972-3.329-.326-4.869-1.147-1.37-1.907-2.807-1.354-4.724a3.618,3.618,0,0,0-.212-2.259c-5.189-12.007-6.487-24.784-6.828-37.607-.295-11.438-.517-22.908.45-34.341a125.646,125.646,0,0,1,7.438-33.395,180.788,180.788,0,0,1,9.965-22.66c4.342-8.1,11.836-12.71,18.654-18.173,10.41-8.337,22.556-9.516,35.178-8.931a71.478,71.478,0,0,1,12.612,1.835Z" transform="translate(-20.553 -283.195)"/>
      <path id="Path_64853" data-name="Path 64853" d="M485.138,913.628q-25.326-2.2-50.689-4.393c-2.9-.248-3.22-.662-2.4-3.525,1.2-4.223,3.1-5.391,7.939-4.781q23.042,2.92,46.089,5.866a4.82,4.82,0,0,1,.961.331c.036,1.907-1.2,3.654-.455,5.686C486.952,913.84,485.748,913.546,485.138,913.628Z" transform="translate(-208.561 -473.336)"/>
      <path id="Path_64854" data-name="Path 64854" d="M677.131,894.719l-34.175,6.626c-.925.181-1.85.414-2.786.517-1.55.176-2.822-.357-3.179-1.949-.388-1.742.589-2.807,2.253-3.148,4.548-.925,9.107-1.809,13.666-2.682q13.159-2.517,26.324-5.014C680.8,892.45,680.341,893.686,677.131,894.719Z" transform="translate(-307.724 -467.679)" fill="#6c46fd"/>
      <path id="Path_64855" data-name="Path 64855" d="M716.35,913.826c7.867-1.313,15.837-1.551,23.776-1.814,5.453-.186,10.906-1.091,16.385-.414.775,1.83,1.1,3.618-.439,5.246-12.922.667-25.874,1.468-38.838,1.613C716.841,916.932,716.748,915.351,716.35,913.826Z" transform="translate(-346.106 -478.444)" fill="#ba1749"/>
      <path id="Path_64856" data-name="Path 64856" d="M714.73,891.507c2.75-1.122,1.985-3.551,2.1-5.649,5.081-1.969,10.482-2.466,15.785-3.391a2.275,2.275,0,0,1,2.889,2.217c-.1,2.13,4.269,4.977-.429,6.311a87.348,87.348,0,0,1-17.465,3.039A2.445,2.445,0,0,1,714.73,891.507Z" transform="translate(-345.323 -464.467)" fill="#010101"/>
      <path id="Path_64857" data-name="Path 64857" d="M536.785,919.65c-.429-.166-.6-.682-.786-1.215a4.211,4.211,0,0,1-.2-1.711,7.292,7.292,0,0,1,1.551-3.665,21.14,21.14,0,0,1,2,.817c.956.45,1.458.781,2.667,1.328.486.228.894.393,1.142.517a2.424,2.424,0,0,1,.155,1.608,3,3,0,0,1-.858,1.375,7.335,7.335,0,0,0-.956.036,12.125,12.125,0,0,0-3.773.75A1.482,1.482,0,0,1,536.785,919.65Z" transform="translate(-258.869 -479.27)" fill="#f5ab27"/>
      <path id="Path_64858" data-name="Path 64858" d="M712.224,916.135c1.333,1.344,1.892,2.838.884,4.652h-5.3c.1-1.406,1.463-2.5,1-4.047A6.333,6.333,0,0,1,712.224,916.135Z" transform="translate(-341.98 -480.753)" fill="#f7aa28"/>
      <path id="Path_64859" data-name="Path 64859" d="M706.1,917.245c1.985,1.923-.408,2.76-1,4.047-1.483.052-3.1-.253-2.879-2.005C702.49,917.3,704.412,917.209,706.1,917.245Z" transform="translate(-339.269 -481.289)" fill="#ba1749"/>
      <path id="Path_64860" data-name="Path 64860" d="M793.2,917.1c.558-1.711.264-3.5.439-5.246,1.7.165,2.641,1.1,2.5,2.791S794.8,917,793.2,917.1Z" transform="translate(-383.234 -478.685)" fill="#f6ab32"/>
      <path id="Path_64861" data-name="Path 64861" d="M548.667,921.152a7.532,7.532,0,0,1,.7-2.982c1.153.393,3.1.677,2.838,1.85C551.934,921.344,549.892,920.749,548.667,921.152Z" transform="translate(-265.086 -481.738)"/>
      <path id="Path_64862" data-name="Path 64862" d="M141.047,724.683c0,6.538-3.618,9.681-10.239,8.973s-11.273-5.722-11.1-11.888c.129-4.652,2.889-8.978,6.378-10.043,4.109-1.251,9.712.786,12.358,4.5A14,14,0,0,1,141.047,724.683Z" transform="translate(-57.846 -381.82)" fill="#6c46fd"/>
      <path id="Path_64863" data-name="Path 64863" d="M126.124,530.331c-.16,3.411.264,6.838-1.034,10.187-1.9,4.864-5.169,7.893-10.41,8.394-1.8.176-2.176.848-2.067,2.383.3,4.047-.45,8.063-.465,12.1,0,2.414-1.866,3.484-3.334,4.605-6.983,5.329-15.284,3.618-21.243-.93-1.034-.786-1.142-2.068-1.251-3.282-.377-4.181-1-8.368-.987-12.555A62.433,62.433,0,0,0,78.3,522.061a52.333,52.333,0,0,1-5.288-17.144,19.838,19.838,0,0,1,16.969-22.2c15.227-1.747,28.35,9.95,31.911,22.375C124.242,513.306,126.517,521.633,126.124,530.331Z" transform="translate(-35.205 -271.274)" fill="#d8b8d0"/>
      <path id="Path_64864" data-name="Path 64864" d="M252.338,437.18c2.486-2.068,4.786-4.44,7.825-5.737a8.439,8.439,0,0,1,1.628-.765c1.778-.326,3.659-.76,4.843,1.225,1.1,1.845.517,3.556-.822,4.936-1.551,1.6-3.323,2.972-4.967,4.492-7.582,7.009-13.408,15.377-18.607,24.226-3.5,5.954-8.539,9.572-15.651,8.787-6.864-.744-12.741-3.53-15.93-10.234a13,13,0,0,1-1.3-5.722c0-5.422-.026-10.854.041-16.271a9.454,9.454,0,0,0-1.034-4.445c-2.372-4.776-4.683-9.578-6.988-14.384a12.132,12.132,0,0,1-.992-2.646c-.383-1.83.264-2.926,2.316-3.1,3.044-.274,5.391,1.116,7.334,3.127,4.016,4.166,7.531,8.714,9.4,14.317a2.561,2.561,0,0,0,1.7,1.99c1.83-3.618,2.46-7.577,3.282-11.5.92-4.414-.041-8.937.977-13.335a12.853,12.853,0,0,1,2.305-5.386c.9-1.132,1.985-1.969,3.556-1.463a3.752,3.752,0,0,1,2.465,3.013c.972,3.541.078,7.019-.248,10.482a101.417,101.417,0,0,1-3.1,15.6c-.2.78-.563,1.6.382,2.016,1.07.46,1.287-.6,1.6-1.23,2.372-4.869,4.652-9.774,7.06-14.638,1.974-4.016,4.037-7.98,7.314-11.154,1.178-1.137,2.491-2.124,4.135-1.463,1.737.7,2.445,2.274,2.46,4.176a15.211,15.211,0,0,1-2,6.859c-1.675,3.349-3.448,6.652-5.008,10.079,2.956-2.739,5.008-6.177,7.484-9.273a25.959,25.959,0,0,1,3.318-3.582c1.313-1.116,2.874-1.551,4.476-.372a3.19,3.19,0,0,1,1.142,4.3c-1.669,4.032-4.652,7.2-6.993,10.777-1.292,1.969-2.646,3.892-3.97,5.841Z" transform="translate(-96.775 -233.876)" fill="#d8b8d0"/>
      <path id="Path_64865" data-name="Path 64865" d="M352.985,860.232c.977,4.652,1.783,8.6,2.615,12.524.517,2.471-.289,3.277-2.657,2.409a11.516,11.516,0,0,1-6.719-7.1,3.16,3.16,0,0,0-2.584-2.357c-4.409-.848-8.72-1.954-12.534-4.461-.842-.553-1.39-.176-2.067.331-1.711,1.313-8.518,1.721-14.989,4.91-1.075.517-2.967,1.551-3.644.925-.269-.253-.176-.61-.579-2.326,0,0-.093-.393-.315-1.21a25.671,25.671,0,0,0-1.111-3.2c-1.261-3.1-5.019-13.123-6.016-15.289-.408-.884-.61-1.323-.636-1.365-.3-.543-.465-.7-.424-.91.119-.589,1.659-.744,1.912-.77,4.7-.517,22.417-6.719,27.554-10.337,3.251-2.305,3.908-2.915,3.908-2.915a10.333,10.333,0,0,1,2.584-2.067c1.809-.977,3.577-1.1,4.91.517,1.266,1.551.946,3.277,0,5.024s-3.024,2.5-4.383,4.543a67.9,67.9,0,0,1,15.222,1.613c4.817.915,9.536,2.155,13.594,5.169,1.458,1.085,3.365,1.215,5.143,1.473a18.973,18.973,0,0,1,4.466,1.147,3.326,3.326,0,0,1,2.321,4.068c-.4,1.974-1.9,2.491-3.67,2.584a2.816,2.816,0,0,0-1.644.4c1.887.946,3.747,1.943,5.686,2.827,1.814.832,2.869,2.155,2.1,4.078-.693,1.737-2.2,2.145-4.083,1.607a5.183,5.183,0,0,0-3.256-.455c.6.77,1.209,1.421,1.675,2.155,1.52,2.4.284,4.693-2.538,4.905a13.315,13.315,0,0,1-7.851-1.99C361.26,864.532,357.43,862.6,352.985,860.232Z" transform="translate(-145.59 -437.358)" fill="#d8b8d0"/>
      <path id="Path_64866" data-name="Path 64866" d="M576.35,649.658c-1.24.863-1.613.31-1.664-.961a15.087,15.087,0,0,1,2.621-9.417,2.863,2.863,0,0,1,1.752-.181c4.517.331,6.719-2.667,5.06-6.823a4.287,4.287,0,0,1-.346-1.23c2.853-1.39,2.672-3.489,1.38-5.856.553-.517,1.292-.413,1.928-.651,1.876-.708,3.334-1.814,3.53-3.985.171-1.825-.233-3.406-1.985-4.4a4.294,4.294,0,0,0-5.458.445,1.359,1.359,0,0,1-.884.46c-.977-2.584-2.548-4.962-2.533-7.851a4.019,4.019,0,0,1,.574-2.657c3.556,0,5.515-2.109,6.719-5.169l12.989-5.877c-3.168-2.005-3.794-4.5-2.067-7.443a3.032,3.032,0,0,1,3.1-1.794c1.711.155,3.448,0,5.169.207,3.442.388,4.192,1.7,3.1,5.076a1.987,1.987,0,0,1-.677.357c-5.427,1.215-6.254,2.5-5.07,7.929a16.932,16.932,0,0,1-3.923,4.435c-.739,0-1.246-.517-1.85-.786a4.607,4.607,0,0,0-5.758,7.06l1.251,1.613c3.055,2.77,7.019,4.135,10.265,6.611-.574.775-1.551.672-2.305,1.034a4.674,4.674,0,0,0,1.535,9.03,4.91,4.91,0,0,0,4.554-3.184c.326-.775.284-1.726,1.07-2.29,1.468,2.812,1.282,4.957-.827,7.267a32.5,32.5,0,0,1-7.892,6.151c-.646-.186-.858-.806-1.261-1.24a4.812,4.812,0,0,0-5.856-1.059,4.7,4.7,0,0,0-2.129,5.727c.212.63.729,1.2.362,1.943l-5.567,3.282C580.258,643.326,578.888,643.978,576.35,649.658Z" transform="translate(-277.651 -321.376)" fill="#f8ac26"/>
      <path id="Path_64867" data-name="Path 64867" d="M629.809,653.71c-.346,3.618-2.011,5.758-4.771,6.146a5.605,5.605,0,0,1-5.686-3.592c-1.4-3.587,1.184-6.874,5.6-7.143C626.972,650.231,628.863,651.477,629.809,653.71Z" transform="translate(-299.059 -351.752)" fill="#ba1749"/>
      <path id="Path_64868" data-name="Path 64868" d="M589.41,643.592c1.37-2.538,4.078-3.143,6.719-1.5a5.257,5.257,0,0,1,1.638,7.236c-1.339,1.819-3.039,3.06-5.51,2.409Z" transform="translate(-284.777 -347.914)" fill="#ba1849"/>
      <path id="Path_64869" data-name="Path 64869" d="M604.577,686.009c-1.551-2.011-2.031-4.135-.563-6.394a5.127,5.127,0,0,1,5.251-2.5,4.439,4.439,0,0,1,4.2,3.52A47.422,47.422,0,0,1,604.577,686.009Z" transform="translate(-291.406 -365.248)" fill="#ba1849"/>
      <path id="Path_64870" data-name="Path 64870" d="M607.811,626.966c-2.486-.941-3.236-2.9-3.055-5.339a4.652,4.652,0,0,1,3.463-4.357c2.279-.687,4.445-.357,5.949,1.809-1.633,1.752-3.272,3.494-4.89,5.257A4.3,4.3,0,0,0,607.811,626.966Z" transform="translate(-292.179 -336.208)" fill="#ba1849"/>
      <path id="Path_64871" data-name="Path 64871" d="M586.246,672.92c2.155,1.664,2.207,3.83,1.1,5.985a5.122,5.122,0,0,1-5.587,2.822,13.691,13.691,0,0,1-1.98-.574C581.088,677.742,583.538,675.23,586.246,672.92Z" transform="translate(-280.124 -363.25)" fill="#bb1a49"/>
      <path id="Path_64872" data-name="Path 64872" d="M577.891,703.185a5.118,5.118,0,0,1,3.473-5.686c2.005-.781,4.073-.734,5.432,1.442A37.178,37.178,0,0,1,577.891,703.185Z" transform="translate(-279.191 -374.903)" fill="#bb1c49"/>
      <path id="Path_64873" data-name="Path 64873" d="M629.266,604.585c-1.814-1.7-1.7-3.716-.631-5.629,1.375-2.455,3.649-3.21,6.378-2.657a5.686,5.686,0,0,1-3.256,4.135C630.274,601.158,630.517,603.437,629.266,604.585Z" transform="translate(-303.354 -326.15)" fill="#bc1e4a"/>
      <path id="Path_64874" data-name="Path 64874" d="M592.309,615.48c-.455,4.254-2.962,6.2-6.719,5.169C586.986,617.816,589.58,616.571,592.309,615.48Z" transform="translate(-282.931 -335.499)" fill="#bd214a"/>
      <path id="Path_64875" data-name="Path 64875" d="M89.948,505.338a8.006,8.006,0,0,1-1.587-4.032,21.35,21.35,0,0,0,3.561.289c.967-.078,2.393-.083,2.527-1.313.145-1.349-1.292-1.354-2.238-1.623-1.933-.517-4.021-.682-5.913-2.4,1.184-.052,2.005-.026,2.812-.145a5.187,5.187,0,0,0,3.67-1.638,1.522,1.522,0,0,0,.32-1.892,1.313,1.313,0,0,0-1.618-.491c-3.618,1.463-7.112.548-10.632-.295-1.38-.326-1.649.217-.987,1.313,3.851,6.394,5.267,13.573,6.719,20.742.641,3.194,1.478,6.388-.517,9.495-2.584,3.949-6.27,4.791-10.591,4.135a118.636,118.636,0,0,1-21.13-5.732c-8.9-3.148-13.025-9.82-15.139-18.385-1.478-6.022-.977-12.152-1.365-18.23-.078-1.158.258-2.693-1.313-2.993-1.39-.264-2.067.972-2.652,2.067-1.271,2.434-1.427,5.1-1.5,8.017-.445-.222-.631-.258-.729-.372-.455-.517-.874-1.07-1.328-1.587-5.277-5.954-11.552-9.784-19.858-9.092-3.9.326-7.644,1.313-9.547,5.127-1.933,3.732-.382,7.2,1.618,10.451a9.782,9.782,0,0,0,.93,1.235C9.87,505.281,18.1,508.253,27.614,508.1c3.9-.062,3.9-.078,4.461,3.618.052.341.155.672.217,1.034,1.075,5.6,3.044,10.932,4.895,16.3,1.726,5.008.677,7.934-3.846,10.72-1.463.9-3.039,1.649-4.419,2.662-3.065,2.248-4.729,5.246-4.135,9.143.569,3.675,3.137,5.551,6.414,6.719a14.861,14.861,0,0,0,17.434-6.564c2.548-4.2,4.135-8.57,2.512-13.666a11.429,11.429,0,0,1,1.969,1.509c7.7,6.605,16.106,11.738,26.407,13.216,8.833,1.266,16.814-4.057,17.439-12.358C97.9,528.142,96.668,516.192,89.948,505.338ZM8.2,493.765c-.6-.724-1.633-1.613-.9-2.677.662-.951,1.887-.667,2.889-.517a11.5,11.5,0,0,1,4.3,1.623,82.766,82.766,0,0,1,12.544,9.9C19.732,501.617,13.069,499.653,8.2,493.765Z" transform="translate(-0.028 -270.573)" fill="#756162"/>
      <path id="Path_64876" data-name="Path 64876" d="M410.913,582.319a257.23,257.23,0,0,0,13.247-22.05,11.734,11.734,0,0,1,2.217-3.453,2.822,2.822,0,0,1,2.874-.631c1.163.326,1.116,1.344,1.178,2.31.2,3.4-1.5,6.13-3.179,8.823-3.034,4.884-6.171,9.7-8.838,14.922,1.551-1.778,3.21-3.484,4.652-5.344,3.448-4.4,6.482-9.092,9.562-13.749.646-.972,1.3-2.4,2.662-2.067,1.592.388,1.354,2,1.3,3.277-.165,3.938-2.228,7.174-4.047,10.472-2.155,3.9-5,7.34-7.655,10.963,2.776-1.034,4.652-3.189,6.513-5.319,3-3.417,5.97-6.869,9.035-10.239a3.213,3.213,0,0,1,4.414-.734c1.592,1.065,1.385,2.724.786,4.2a18.067,18.067,0,0,1-3.845,5.443c-.62.656-.946,1.034.109,1.68,1.881,1.194,1.7,3.018.966,4.817A27.1,27.1,0,0,1,433.9,597.1a273.942,273.942,0,0,0-30.433,27.425c-4.688,4.786-9.774,9.185-14.633,13.811-1.7,1.618-3.453,1.256-5.215.388-5.572-2.745-6.776-11.5-2.191-16.24a205.547,205.547,0,0,0,16.111-18.773,15.505,15.505,0,0,0,3.06-6.435,50.9,50.9,0,0,1,1.825-6.435,34.191,34.191,0,0,0,2.155-13.9c-.119-1.483.109-2.941,1.638-3.427,1.7-.517,2.4,1,3.06,2.161A13.864,13.864,0,0,1,410.913,582.319Z" transform="translate(-182.931 -306.778)" fill="#b9b7b8"/>
      <path id="Path_64877" data-name="Path 64877" d="M944.036,165.454c4.455-5.484,8.1-11.319,7.412-18.85a18.405,18.405,0,0,1,1.344-9.355c.8-1.788,1.923-3.587,4.207-3.034,2.409.584,2.326,2.786,2.011,4.652-.589,3.525-.259,7.04-.052,10.6.739-2.636,1.442-5.288,2.233-7.913a21,21,0,0,1,1.323-3.349,2.506,2.506,0,0,1,2.951-1.551,2.567,2.567,0,0,1,1.969,2.7c.181,3.473-1.034,6.8-1.153,10.239-.238,6.533-2.068,12.446-6.518,17.46,2.951-1.365,4.357-3.99,5.877-6.507.574-.956,1.034-1.98,1.633-2.925a2.1,2.1,0,0,1,4,1.261c-.491,5.6-2.347,10.56-6.973,14.126a56.215,56.215,0,0,1-8.368,5.107c-12.245,6.409-17.573,17.222-18.752,30.335-.32,3.541-1.638,5.53-4.528,6.983a21.492,21.492,0,0,1-9.423,2.383c-4.481.062-7.148-1.964-7.985-6.409-1.034-5.355-.259-10.627,1.328-15.79,2.838-9.236,6.983-17.749,13.7-24.872,2.476-2.626,4.8-5.406,7.107-8.182,2.667-3.194,3.794-7.1,4.8-11.03.445-1.747.822-3.515,1.365-5.236.346-1.1,1.034-2.067,2.414-1.918,1.22.114,1.737,1.034,2.011,2.067a16.672,16.672,0,0,1,0,8.673A41.82,41.82,0,0,1,944.036,165.454Z" transform="translate(-441.969 -102.936)" fill="#756162"/>
      <path id="Path_64878" data-name="Path 64878" d="M711.538,454.669c1.551-2.708,1.127-5.686,1.122-8.58,0-1.582,0-3.354,2.026-3.618,1.882-.269,2.76,1.225,3.241,2.755,1.184,3.815,1.82,7.691.3,12.017a21.451,21.451,0,0,0,4.843-5.07c.719-.967,1.6-2.026,3-1.261a2.8,2.8,0,0,1,1.313,3.349,18.055,18.055,0,0,1-2.7,5.83c-1.4,2.068-2.672,4.218-4.135,6.239-1.551,2.145-1.251,4.2.057,6.233,2.367,3.675,5.779,6.228,9.686,9.118-.4-5.784.615-10.927.941-16.121a7.149,7.149,0,0,1,1.845-4.946,4.171,4.171,0,0,1,4.74-1.065,3.462,3.462,0,0,1,2.186,3.742,21,21,0,0,1-.393,3.313,21.331,21.331,0,0,0,2.931,16.54,80.035,80.035,0,0,1,4.243,7.386c3.148,6.2-.067,11.852-6.967,12.3a48.6,48.6,0,0,1-6.2-.083,10.079,10.079,0,0,1-7.035-3.318c-4.693-5.06-10.141-9.19-15.7-13.3a30.2,30.2,0,0,1-10.136-12.157c-1.861-4.368-1.147-8.823.393-13.113,1.8-5,4.786-9.552,5.567-14.943a2.067,2.067,0,0,1,1.938-1.819,2.368,2.368,0,0,1,2.341,1.716c1.075,2.584.724,5.226.072,7.851-.517,3.618-2.584,6.673-3.38,10.182a9.027,9.027,0,0,0-.517,2.295A37.077,37.077,0,0,1,711.538,454.669Z" transform="translate(-338.032 -251.898)" fill="#756162"/>
      <path id="Path_64879" data-name="Path 64879" d="M496.869,514.453a23.255,23.255,0,0,1-7.164-1.328,5.686,5.686,0,0,1-3.944-4.683,30,30,0,0,0-12.989-20.453,42.489,42.489,0,0,0-6.611-3.98c-1.39-.636-2.631-1.551-2.15-3.354s1.835-2.429,3.556-2.378a21.61,21.61,0,0,1,13.273,4.993c1.427,1.163,1.907.915,2.341-.734.6-2.274,2.005-4.176,3.158-6.2.331-.579,1.106-1.132.646-1.814-.517-.8-1.225.078-1.845.16-.517.067-.987.341-1.489.4a2.718,2.718,0,0,1-3.065-1.406,2.652,2.652,0,0,1,.749-3.277q1.675-1.419,3.36-2.822a1.6,1.6,0,0,0,.248-2.641c-1.008-1.1-1.551.145-2.109.517-1.339.925-2.507,2.093-3.84,3.029a8.058,8.058,0,0,1-4.595,1.483,2.454,2.454,0,0,1-2.652-1.6,2.285,2.285,0,0,1,1.034-2.724c3.318-2.067,6.011-4.853,8.885-7.443,2.145-1.923,4.817-1.763,7.066.842,1.923,2.223,3.137,2.512,5.655.677,3.82-2.781,7.4-1,8.27,3.67.181.977.279,1.468,1.4.832,1.9-1.085,3.933-1.633,5.686.2s1.551,4.135.568,6.27c-3.1,6.911-6.12,13.837-8.9,20.881a5.548,5.548,0,0,0-.072,4.678c1.328,2.889,2.584,5.815,3.866,8.72,2.1,4.755,1.091,7.076-3.871,8.539A39.812,39.812,0,0,1,496.869,514.453Z" transform="translate(-224.142 -258.884)" fill="#b9b7b8"/>
      <path id="Path_64880" data-name="Path 64880" d="M854.711,668c.775-7.934,1.628-16.54,2.45-25.192.6-6.326,1.158-12.653,1.716-18.985.212-2.393.424-4.791.558-7.19.067-1.132.517-1.163,1.489-.941,9.3,2.067,17.372-.212,24.034-7.071,1.194-1.23,1.582-.894,2.347.377,2.91,4.807,1.116,9.479-.941,13.671-5.386,10.963-11.242,21.708-16.964,32.485-2.739,5.169-5.686,10.219-8.353,15.423-1.07,2.068-2.378,3.148-4.652,2.46S854.747,670.357,854.711,668Z" transform="translate(-412.927 -331.815)" fill="#93b0dc"/>
      <path id="Path_64881" data-name="Path 64881" d="M607.671,562.336c8.063,4.652,15.506,4.74,23.259-.8.729,6.481,1.437,12.761,2.207,19.558-4.378-1.9-8.316-3.54-12.183-5.334a4.068,4.068,0,0,0-3.851-.083c-3.029,1.426-6.156,2.636-9.247,3.928-.863.362-1.664.8-1.514-.863C606.839,573.381,607.227,568.011,607.671,562.336Z" transform="translate(-292.949 -309.439)" fill="#94b0dc"/>
      <path id="Path_64882" data-name="Path 64882" d="M107.986,645.057c-6,.3-11.159-1.742-14.441-7.464a8.6,8.6,0,0,1-1.365-5.169,2.624,2.624,0,0,1,1.8-2.584c1.282-.331,1.985.517,2.434,1.478,3.4,7.3,10.989,7.086,16.726,5.711,3.587-.858,5.975-3.3,7.644-6.451.708-1.344,1.551-2.336,3.163-2.016a3.467,3.467,0,0,1,2.641,3.143c.517,3.019-.951,5.375-2.879,7.407C119.543,643.537,114.3,645.3,107.986,645.057Z" transform="translate(-44.534 -341.791)" fill="#f8ac26"/>
      <path id="Path_64883" data-name="Path 64883" d="M843.546,544.958a5.9,5.9,0,0,1-5.722-2.827,25.707,25.707,0,0,1-3.008-6.2c-.858-2.341.119-3.592,1.995-4.548a8.054,8.054,0,0,1,2.176-.755c2.44-.372,3.484,1.132,5.9,1.582,3.442.646,4.517-1.819,6.719-.884,2.372,1.034,4.5,5.4,2.652,7.908A14.019,14.019,0,0,1,843.546,544.958Z" transform="translate(-403.189 -294.475)" fill="#ba174a"/>
      <path id="Path_64884" data-name="Path 64884" d="M328.632,609.091a10.348,10.348,0,0,1-9.3-6.259,8.986,8.986,0,0,1,2.657-10.068c.6-.543,1.22-1.773,2.3-.925,1.2.941.517,1.825-.258,2.8-3.618,4.683-2.068,9.66,3.308,11.014,4.91,1.23,12.265-4.709,12.084-9.774-.1-2.863-1.985-4.187-4.424-5.039-.718-.253-2.067,0-1.768-1.328s1.4-.982,2.341-.837a7.956,7.956,0,0,1,6.5,10.746C340.169,604.791,334.127,609.122,328.632,609.091Z" transform="translate(-154.007 -322.474)" fill="#f8ad28"/>
      <path id="Path_64885" data-name="Path 64885" d="M327.658,691.387c-.2,1.323-1.272,1.483-2.036,1.938q-19.15,11.474-38.321,22.9c-.863.517-1.943,1.907-2.807.708-.76-1.034.558-2.068,1.468-2.641,3.354-2.2,6.771-4.3,10.415-6.6a18.707,18.707,0,0,0-7.846-1.788c-1.551-.1-3.1-.062-4.652-.114-.4,0-.91.083-1.06-.47a.961.961,0,0,1,.672-1.215,9.49,9.49,0,0,1,1.721-.517,20.741,20.741,0,0,1,12.591,1.592,3.537,3.537,0,0,0,3.737-.243c6.6-3.876,13.227-7.717,19.9-11.459C323.327,692.447,325.275,691.232,327.658,691.387Z" transform="translate(-136.632 -372.166)" fill="#030303"/>
      <path id="Path_64886" data-name="Path 64886" d="M622.618,501.242c-1.478-2.471-3.008-4.874-3.174-7.815a9.445,9.445,0,0,1-.062-2.067c.212-1.21.041-3.179,1.6-3.1s.724,1.964.744,3a16.189,16.189,0,0,0,3.773,9.681c.517.687,1.292,1.251.832,2.228s-1.359.517-2.316.744a15.233,15.233,0,0,0,5.262,4.368c1.23.636,2.5,1.339,1.587,2.894-.858,1.458-2.253.884-3.432.274a15.507,15.507,0,0,1-5.215-4.559c-1.034-1.349-1.866-1.778-3.618-1.1a20.473,20.473,0,0,1-8.9,1.116c-1.034-.072-1.886-.47-1.907-1.669a1.359,1.359,0,0,1,1.458-1.489C613.831,504.017,618.043,502.363,622.618,501.242Z" transform="translate(-293.655 -274.033)" fill="#020202"/>
      <path id="Path_64887" data-name="Path 64887" d="M383.542,581.907a42.049,42.049,0,0,1-8.27-1.034c-1.473-.326-2.827-1.106-3.019-2.781s1.24-2.279,2.5-2.858c3.8-1.757,4.879-2.129,7.272-2.584a4.053,4.053,0,0,1,1.819-.047c1.4.346,1.473,1.349,2.652,1.551s1.7-.713,2.884-.393a2.977,2.977,0,0,1,1.654,1.37c1,1.732.413,4.952-1.551,5.856S385.465,581.763,383.542,581.907Z" transform="translate(-179.854 -314.745)" fill="#020202"/>
      <path id="Path_64888" data-name="Path 64888" d="M754.585,677.348c-.393,2.145-.744,4.135-2.171,5.784-1.034-.672-.662-1.618-.517-2.347a68.307,68.307,0,0,0,1.359-9.433c.036-.827.253-1.721,1.261-1.551.806.15,1.731.217,1.938,1.6a20.675,20.675,0,0,0,2.414,7.293c.517.9,1.2,1.985,2.321,1.742,1.38-.295.786-1.69.858-2.62a9.157,9.157,0,0,0-1.406-6.4c-.46-.636-.755-1.489.129-2.036s1.416.072,1.949.713c1.866,2.259,2.584,9.133,1.173,11.661-.822,1.473-2.14,1.654-3.572,1.235a6.269,6.269,0,0,1-3.618-3.148C756.228,678.976,756,677.9,754.585,677.348Z" transform="translate(-363.19 -361.435)" fill="#040404"/>
      <path id="Path_64889" data-name="Path 64889" d="M141.035,534.664a56.9,56.9,0,0,1-8.673-8.177,23.5,23.5,0,0,1-4.719-9.4c0-.1-.233-.382-.15-.687a.76.76,0,0,1,.682-.563.915.915,0,0,1,.636.388,10.02,10.02,0,0,1,1.23,1.835,48.332,48.332,0,0,0,13.108,15.015c2.026,1.473,1.9,2.424-.4,3.385-1.421.594-2.9,1.034-4.373,1.52-.78.248-1.83.781-2.207-.357-.3-.91.7-1.215,1.406-1.509Z" transform="translate(-61.602 -287.36)" fill="#040404"/>
      <path id="Path_64890" data-name="Path 64890" d="M870.928,740.27c3.944,8.6,9.3,11.748,18.892,11.371.925-.036,2.522-.7,2.677.465s-1.447,1.778-2.584,2.067a14.887,14.887,0,0,1-7.887-.475c-4.3-1.261-8.13-3.334-10.854-7.035C869.78,744.782,869.01,742.746,870.928,740.27Z" transform="translate(-420.233 -395.789)" fill="#040404"/>
      <path id="Path_64891" data-name="Path 64891" d="M254.643,482.922a10.993,10.993,0,0,1,0,1.551c-.165,1.137-.517,2.5-1.763,2.527-1.416.036-1.23-1.618-1.22-2.429.062-6.4-3.618-10.5-8.3-14.059a12.917,12.917,0,0,1-1.551-1.328,1.034,1.034,0,0,1-.2-1.4c.4-.548.884-.289,1.375-.14C249.117,469.541,254.643,476.72,254.643,482.922Z" transform="translate(-116.653 -263.984)" fill="#040404"/>
      <path id="Path_64892" data-name="Path 64892" d="M447.989,711.732c-.75,6.254-4.311,10.854-8.849,14.819-.424.367-1.034.842-1.6.274s-.072-1.178.253-1.628c1.406-1.943,2.931-3.809,4.321-5.768,1.85-2.584,3.53-5.293,3.716-8.621.047-.915-.052-2.243,1.2-2.16s.868,1.427.956,2.31C447.989,711.215,447.989,711.474,447.989,711.732Z" transform="translate(-211.277 -380.509)" fill="#050505"/>
      <path id="Path_64893" data-name="Path 64893" d="M391.7,865c8.1,3.664,15.8,7.236,23.151,11.48.563.331,1.4.75.946,1.551s-1.184.269-1.762-.078c-6.43-3.851-13.227-6.983-19.915-10.337C393.214,867.161,391.881,867.036,391.7,865Z" transform="translate(-189.257 -456.05)" fill="#111"/>
      <path id="Path_64894" data-name="Path 64894" d="M400.092,554.644c-.434-.388-4.554-4.135-5.35-6.151-.067-.171-.475-1.277-.093-1.861a1.1,1.1,0,0,1,.517-.4c.884-.367,1.37.517,1.711,1.184a15.636,15.636,0,0,0,5.432,6.037c.6.4,1.111.9.972,1.664a1.649,1.649,0,0,1-1.706,1.292c-1.618.109-3.241.171-4.864.16-.62,0-1.551.083-1.551-.868a.73.73,0,0,1,.093-.388c.243-.419.987-.517,1.256-.558a29.581,29.581,0,0,1,3.582-.109Z" transform="translate(-190.604 -302.001)" fill="#070707"/>
      <path id="Path_64895" data-name="Path 64895" d="M847.265,479.43c1.215.062,2.331.517,2.517,1.943a2.017,2.017,0,0,1-1.876,2.352,43.086,43.086,0,0,0-5.686,1.582,1.859,1.859,0,0,1-2.445-.8,1.889,1.889,0,0,1,.78-2.471,12.55,12.55,0,0,1,6.709-2.6Z" transform="translate(-405.636 -269.769)" fill="#070707"/>
      <path id="Path_64896" data-name="Path 64896" d="M421.05,716.976a16.706,16.706,0,0,1-4.869,10.007c-.517.517-1.246,1.225-2,.6-.832-.693,0-1.437.372-2.005a26.981,26.981,0,0,0,3.479-5.97,11.93,11.93,0,0,0,.491-7.3c-.15-.517-.419-1.3.346-1.551s1.034.414,1.287.982A13.581,13.581,0,0,1,421.05,716.976Z" transform="translate(-199.948 -381.505)" fill="#0b0b0b"/>
      <path id="Path_64897" data-name="Path 64897" d="M875.452,477.879a12.565,12.565,0,0,1,4.874,1.168,2.271,2.271,0,0,1,1.458,2.9,2.19,2.19,0,0,1-2.884,1.411c-1.3-.3-2.621-.775-3.954-1.034-1.447-.295-2.838-.739-2.651-2.486C872.5,477.9,874.129,477.869,875.452,477.879Z" transform="translate(-421.439 -269.02)" fill="#040404"/>
      <path id="Path_64898" data-name="Path 64898" d="M845.086,512.555c.842.884,2.021.439,2.925.915.625.331,1.3.594,1.168,1.458s-.874.93-1.551.951a2.217,2.217,0,0,1-.765-.078c-1.649-.543-4.083-.062-4.652-2-.517-1.607,1.514-2.672,2.584-3.825a23.73,23.73,0,0,1,3.329-2.8c.646-.491,1.509-.744,2.031.083.46.724-.2,1.23-.76,1.664C847.867,510.048,846.146,510.886,845.086,512.555Z" transform="translate(-406.874 -282.959)" fill="#0a0a0a"/>
      <path id="Path_64899" data-name="Path 64899" d="M88.458,503.844c-1.07-.269-1.034-1.034-.894-1.83.4-2.067,4.388-5.546,6.513-5.722a1.68,1.68,0,0,1,1.757.791,1.255,1.255,0,0,1-.331,1.83c-2.533,1.034-4.424,2.858-6.368,4.652a2.177,2.177,0,0,1-.677.279Z" transform="translate(-42.285 -277.902)" fill="#090909"/>
      <path id="Path_64900" data-name="Path 64900" d="M827.027,715.19a2.681,2.681,0,0,1-.114,2.435,72.455,72.455,0,0,0-2.838,11.423c-.109.662-.114,1.794-1.142,1.675-.894-.109-.6-1.1-.563-1.721.217-4.042.636-8.032,2.677-11.655A4.652,4.652,0,0,1,827.027,715.19Z" transform="translate(-397.291 -383.672)" fill="#090909"/>
      <path id="Path_64901" data-name="Path 64901" d="M613.694,478.556a1.447,1.447,0,0,1,1.551,1.333c.1,1.075-.77,1.5-1.7,1.473a6.538,6.538,0,0,0-5.133,2.5c-.419.46-1.065,1.127-1.742.517-.594-.548-.217-1.287.155-1.881A7.87,7.87,0,0,1,613.694,478.556Z" transform="translate(-292.966 -269.345)"/>
      <path id="Path_64902" data-name="Path 64902" d="M364.754,531.135c1.452-.088,2.321.181,2.5,1.179.227,1.24-.791,1.261-1.654,1.39-1.85.274-2.941,1.644-4.088,2.915-.517.594-1.147,1.271-1.943.667s-.31-1.463.078-2.1A8,8,0,0,1,364.754,531.135Z" transform="translate(-173.527 -294.742)" fill="#f8ac26"/>
      <path id="Path_64903" data-name="Path 64903" d="M390.833,882.624c-.1.982-.76.817-1.251.429a75.125,75.125,0,0,0-10.2-6.89,1.127,1.127,0,0,1-.491-.786c-.036-.47.419-.429.739-.46,1.85-.15,10.689,5.758,11.128,7.433A2.09,2.09,0,0,0,390.833,882.624Z" transform="translate(-183.066 -460.84)" fill="#101010"/>
      <path id="Path_64904" data-name="Path 64904" d="M405.047,520.768c0,1.292-.517,1.845-1.437,1.23-1.814-1.241-3.38-.719-4.983.336-.631.414-1.37.992-1.99.062-.45-.672-.047-1.323.455-1.84a5.752,5.752,0,0,1,6.073-1.706A2.507,2.507,0,0,1,405.047,520.768Z" transform="translate(-191.548 -288.685)" fill="#f8ac26"/>
      <path id="Path_64905" data-name="Path 64905" d="M134.892,492.79a9.7,9.7,0,0,1,1.266.145c.925.207,1.6.724,1.551,1.752s-.78,1.468-1.763,1.452a13.552,13.552,0,0,0-4.078.315,1.261,1.261,0,0,1-1.551-.641c-.408-.749-.041-1.323.517-1.8A5.76,5.76,0,0,1,134.892,492.79Z" transform="translate(-62.891 -276.224)" fill="#0d0d0d"/>
      <path id="Path_64906" data-name="Path 64906" d="M364.27,845.719c-3.8,1.214-7.639.362-11.335.972a.832.832,0,0,1-.967-.662c-.078-.377.212-.579.517-.786C354.268,844,362.28,844.21,364.27,845.719Z" transform="translate(-170.055 -446.115)" fill="#202020"/>
      <path id="Path_64907" data-name="Path 64907" d="M640.294,474.65a14.342,14.342,0,0,1,1.732.476,1.225,1.225,0,0,1,.811,1.194c-.031.62-.6.755-1.116.817a17.3,17.3,0,0,0-4.936,1.178,1.1,1.1,0,0,1-1.365-.383,1.192,1.192,0,0,1,.243-1.618C636.774,475.131,638.232,474.727,640.294,474.65Z" transform="translate(-306.897 -267.46)"/>
      <path id="Path_64908" data-name="Path 64908" d="M109.144,537.929c-1.178-.114-1.949-.656-1.985-1.742a1.761,1.761,0,0,1,1.943-1.907,1.69,1.69,0,0,1,1.892,1.68A1.918,1.918,0,0,1,109.144,537.929Z" transform="translate(-51.786 -296.269)" fill="#131313"/>
      <path id="Path_64909" data-name="Path 64909" d="M372.6,550.378a1.8,1.8,0,0,1-1.912,1.654,1.6,1.6,0,0,1-1.706-1.814,1.69,1.69,0,0,1,1.866-1.716,1.752,1.752,0,0,1,1.752,1.876Z" transform="translate(-178.275 -303.136)" fill="#171717"/>
      <path id="Path_64910" data-name="Path 64910" d="M843.149,499c1.22.088,1.778.631,1.8,1.633a1.576,1.576,0,0,1-1.721,1.768,1.427,1.427,0,0,1-1.576-1.592A1.652,1.652,0,0,1,843.149,499Z" transform="translate(-406.637 -279.224)" fill="#0a0a0a"/>
      <path id="Path_64911" data-name="Path 64911" d="M877.2,505.1a1.557,1.557,0,0,1,1.628,1.551,1.442,1.442,0,0,1-1.525,1.644,1.521,1.521,0,0,1-1.793-1.654C875.535,505.658,876.176,505.152,877.2,505.1Z" transform="translate(-423 -282.171)" fill="#0d0d0d"/>
      <path id="Path_64912" data-name="Path 64912" d="M615.925,503.613c-.91,0-1.5-.382-1.551-1.333a1.55,1.55,0,0,1,1.473-1.778,1.365,1.365,0,0,1,1.69,1.452,1.618,1.618,0,0,1-1.613,1.659Z" transform="translate(-296.83 -279.93)"/>
      <path id="Path_64913" data-name="Path 64913" d="M144.356,518.43a1.628,1.628,0,0,1,1.587,1.659c.036.936-.517,1.4-1.427,1.452a1.406,1.406,0,0,1-1.613-1.3C142.769,519.241,143.41,518.694,144.356,518.43Z" transform="translate(-69.047 -288.611)" fill="#222"/>
      <path id="Path_64914" data-name="Path 64914" d="M646.986,498.366c-.14.827-.579,1.463-1.478,1.421a1.607,1.607,0,0,1-1.618-1.638c0-1.075.822-1.458,1.757-1.354a1.385,1.385,0,0,1,1.339,1.571Z" transform="translate(-311.098 -278.151)" fill="#151515"/>
      <path id="Path_64915" data-name="Path 64915" d="M403.194,540.551a1.406,1.406,0,0,1-1.576,1.3A1.344,1.344,0,0,1,400.2,540.4a1.308,1.308,0,0,1,1.551-1.313,1.447,1.447,0,0,1,1.447,1.463Z" transform="translate(-193.359 -298.581)" fill="#171717"/>
      <path id="Path_64916" data-name="Path 64916" d="M134.678,583.771c-5.531-.217-9.919-1.468-13.661-4.559-1.463-1.2-2.667-2.662-1.887-4.652s2.729-2.16,4.6-2.031c4.983.352,9.65,2.393,14.664,2.714a3.406,3.406,0,0,1,3.2,3.22,3.928,3.928,0,0,1-2.455,4.135A8.334,8.334,0,0,1,134.678,583.771Z" transform="translate(-57.452 -314.733)" fill="#fefefe"/>
      <path id="Path_64917" data-name="Path 64917" d="M525.551,492.468c-1.551-.408-3.024-.2-4.135-1.179-.475-.429-.832-.941-.486-1.551s.848-.563,1.463-.145c1.664,1.137,3.4.832,5.1.052.693-.32,1.421-.951,2.067-.186.744.863-.176,1.349-.682,1.876-2.5,2.584-3.732,5.9-5.169,9.107-.31.7-.424,2.067-1.551,1.551-.884-.4-.377-1.509-.1-2.31A52.066,52.066,0,0,1,525.551,492.468Z" transform="translate(-251.625 -274.44)" fill="#080808"/>
      <path id="Path_64918" data-name="Path 64918" d="M508.037,511c-1.685-.9-2.755-2.331-4.543-2.269-.2,0-.594-.455-.584-.687,0-.465.455-.641.894-.739C505.665,506.881,507.608,508.421,508.037,511Z" transform="translate(-242.986 -283.203)" fill="#1b1b1b"/>
      <path id="Path_64919" data-name="Path 64919" d="M847.7,544.831c-2.626,0-6.032-2.967-6.233-5.055-.093-.982,2.067-2.435,3.055-1.793a8.012,8.012,0,0,0,6.812,1.08c.868-.238,1.432.295,1.737,1.132a2.275,2.275,0,0,1-.594,2.791A8.368,8.368,0,0,1,847.7,544.831Z" transform="translate(-406.552 -297.982)" fill="#fdfbfc"/>
      <path id="Path_64920" data-name="Path 64920" d="M381,580.864a23.192,23.192,0,0,1,9.066-1.706c.889.026,1.964.258,2.119,1.142.2,1.137-1.075,1.158-1.8,1.37C387.368,582.543,384.416,582.1,381,580.864Z" transform="translate(-184.087 -317.95)" fill="#ebebeb"/>
      <path id="Path_64921" data-name="Path 64921" d="M410.2,679.414a6.6,6.6,0,0,0-5.686-2c-5.655.656-9.014-3.411-7.443-8.833a4.393,4.393,0,0,0,0-2.75,5.329,5.329,0,0,1,.026-3.287c.331-1.127.78-2.269,2.145-2.161,1.473.119,1.225,1.447,1.189,2.424-.062,1.675.584,1.892,2.181,1.669,5.138-.713,8.234,2.305,7.417,7.329-.295,1.788.413,2.29,1.742,2.75,3.659,1.287,3.882,2.393,1,4.859Z" transform="translate(-191.664 -357.19)" fill="#6d47fd"/>
      <path id="Path_64922" data-name="Path 64922" d="M52.425,526.8c-1.551.331-2.863,2.316-4.037.677-1-1.4.842-2.378,1.716-3.3,1.644-1.732,3.417-3.344,5.2-4.941.961-.853,2.124-1.256,3.241-.274s.837,2.124.2,3.261c-.956,1.716-1.892,3.442-2.884,5.169-.47.8-.956,1.732-2.067,1.618C52.477,528.857,52.7,527.657,52.425,526.8Z" transform="translate(-23.252 -288.592)" fill="#ba1a4c"/>
      <path id="Path_64923" data-name="Path 64923" d="M405.271,680.651a3.593,3.593,0,0,1-3.763-3.933,3.937,3.937,0,0,1,3.8-4.057,4.3,4.3,0,0,1,4.135,4.347A3.943,3.943,0,0,1,405.271,680.651Z" transform="translate(-193.995 -363.125)" fill="#fdfcfe"/>
      <path id="Path_64924" data-name="Path 64924" d="M643.408,135.961c-2.016-1.313-4.192-2.4-6.109-3.84-3.649-2.729-7.122-5.686-10.735-8.477-5.334-4.135-10.984-7.479-18.137-6.755a1.708,1.708,0,0,1-1.819-1.065,28.474,28.474,0,0,0-14.9-12.146c-1.246-.476-1.618-.817-1.111-2.15a16.4,16.4,0,0,0,1.168-6.239c0-8.761-2.7-15.025-9.112-19.491a11.149,11.149,0,0,0-8.87-1.721c-1.9.377-3.4,1.427-3.375,3.618,0,1.034.45,1.938,1.778,1.034,3.721-2.527,6.254-2.5,9.64.419,6.2,5.36,7.4,12.25,5.934,19.951-.475,2.5-1.551,3.618-4.274,3.391a15.816,15.816,0,0,0-10.766,2.838c-2.367,1.68-4,3.866-3.618,6.952.574,4.817,5.432,7.236,9.934,5,3.861-1.933,6.326-5.3,8.342-8.921,1.034-1.9,2.068-2.031,3.887-1.3a28.813,28.813,0,0,1,10.2,7.314c2.584,2.8,2.584,3.019-.486,5.112-5.262,3.618-5.686,10.012-.935,13.32a4.7,4.7,0,0,0,6.352-.4c2.724-2.429,3.246-5.551,2.8-8.957-.424-3.2-.455-3.179,2.714-2.977a13.9,13.9,0,0,1,4.466,1.209,37.494,37.494,0,0,1,8.916,5.634c3.753,3.013,7.293,6.321,11.542,8.673,1.726.951,3.556,1.721,5.324,2.584,1.427.713,2.186-.284,2.636-1.246C645.279,136.224,643.966,136.312,643.408,135.961Zm-65.6-22.2c-1.711,1-3.453,1.24-4.745-.7-1.215-1.814-.408-3.287,1.034-4.492,2.967-2.476,6.471-2.863,10.6-2.584C582.712,109.3,580.8,112.014,577.807,113.756Zm27.787,12.782a4.135,4.135,0,0,1-2.341,3.448c-.961.439-1.628-.377-2.13-1.034a3.923,3.923,0,0,1-.326-4.342,4.179,4.179,0,0,1,.992-1.168c.884-.791,1.9-2.067,2.977-1.675,1.194.439.7,2.067.837,2.791a16.96,16.96,0,0,1,.01,1.98Z" transform="translate(-274.937 -73.794)" fill="#b91749"/>
      <path id="Path_64925" data-name="Path 64925" d="M406.5,195.684c-1.731-.842-2.708-.548-3.727,1.132-3.1,5.169-6.383,10.208-9.619,15.289-4.135,6.451-8.074,13.025-13.93,18.158-3.923,3.437-8.27,5.427-13.651,4.952-1.757-.155-2.409-.636-2.233-2.445.517-5.107-2.455-8.234-6.528-10.467-3.267-1.794-7.086-1.39-8.611.6-1.592,2.067-1.034,5.577,1.421,8.513a22.117,22.117,0,0,0,7.236,5.711c1.375.687,1.308,1.261.357,2.254-2.186,2.279-4.962,3.282-7.955,3.933-3.577.77-7.19.372-11,.429.31,2.305,1.551,3.158,3.561,3.1,1.721-.047,3.453.134,5.169,0,5.469-.46,10.518-1.938,13.955-6.637a2.043,2.043,0,0,1,2.419-.827,22.075,22.075,0,0,0,7.443.026c6.611-1.034,11.438-5.05,15.589-9.862,8.368-9.7,14.369-20.98,20.778-31.973C407.768,196.562,407.541,196.19,406.5,195.684ZM359.514,233.5a16.364,16.364,0,0,1-7.815-5.9,1.868,1.868,0,0,1-.382-2.14c.419-.625,1.256-.4,1.923-.362C357.126,225.31,360.139,229.254,359.514,233.5Z" transform="translate(-163.438 -132.462)" fill="#6c46fd"/>
      <path id="Path_64926" data-name="Path 64926" d="M839.6,17.764c-6.538-1.344-12.265.615-17.47,4.378-1.576,1.147-2.476,1.52-3.882-.284a11.439,11.439,0,0,0-7.329-4,31.173,31.173,0,0,0-16.245,1.551,19.166,19.166,0,0,0-8.9,6.538c.14.238.284.476.429.708,1.106-.589,2.269-1.1,3.3-1.742a28.754,28.754,0,0,1,12.829-4.347c4.476-.4,9.009-.662,12.8,2.481,2.5,2.067,2.45,2.429.352,4.791q-2.207,2.5-4.275,5.158a8.6,8.6,0,0,0-1.726,5.815c.129,3,2.119,4.311,4.652,2.7,3.69-2.336,6.683-5.618,6.719-10.131,0-3.572,1.757-5.288,4.419-6.719a39.066,39.066,0,0,1,4.859-2.372c5.748-2.129,11.371-.858,14.912,3.225,2.021,2.326,2.651,5.133,3.018,8.089.088.708-.434,2.295,1.075,2.031,1.272-.222,2.838-.367,2.827-2.584C851.965,26.049,846.481,19.18,839.6,17.764ZM813.329,37.638c.481-2.817,2.409-4.652,4.7-6.973A9.826,9.826,0,0,1,813.329,37.638Z" transform="translate(-379.649 22.556)" fill="#6c47fd"/>
      <path id="Path_64927" data-name="Path 64927" d="M316.17,191.542a24.489,24.489,0,0,1-11.02-2.517c-2.719-1.287-4.512-.61-6.1,1.742-1.3,1.918-2.755,3.732-4.207,5.541-2.822,3.51-5.422,4.135-9.536,2.269a31.528,31.528,0,0,1-8.859-6.58c-6.621-6.538-15.242-5.35-20.013,2.755-.222.367-.414.755-.62,1.132-.548,1-1.287.517-2.005.258-1.034-.346-.625-1-.372-1.644,3.065-7.836,16.193-14.3,24.489-6.321a38.6,38.6,0,0,0,8.389,6.389c2.341,1.266,4.135,1.065,5.686-1.287,1.551-2.274,3.354-4.352,5.05-6.518,2.233-2.853,5.065-3.349,8.27-2a29.775,29.775,0,0,0,12.5,2.677,16.2,16.2,0,0,0,8.518-2.548c.631-.4,1.184-1.437,2.031-.129a1.805,1.805,0,0,1-.2,2.688C324.91,190.684,320.853,191.723,316.17,191.542Z" transform="translate(-122.312 -127.059)" fill="#ba1749"/>
      <path id="Path_64928" data-name="Path 64928" d="M267.166,307.605a55.472,55.472,0,0,0-37.158.336c-1.9.662-2.781.8-3.959-1.235a19.351,19.351,0,0,0-12.787-9.676c-.677-.155-1.788-.455-2.067.383-.367,1.034.78,1.085,1.468,1.3a20.081,20.081,0,0,1,10.094,7.691c2.424,3.3,2.388,3.365-.724,5.908-3.8,3.1-5.055,7.153-3.267,10.678a4.91,4.91,0,0,0,4.378,3.1,4.982,4.982,0,0,0,4.652-2.652,10.167,10.167,0,0,0,1.406-6.2c-.2-5.039-.233-5.169,3.913-6.363a59.15,59.15,0,0,1,32.821-.129c1.763.486,3.737,1.075,4.228-1.1C270.5,308.252,268.318,308,267.166,307.605ZM225.222,321.08c-.434.744-.946,1.525-1.959,1.37-1.111-.171-1.432-1.111-1.623-2.067-.45-2.186.91-4.171,4.3-6.037C226.049,316.806,226.421,319.028,225.222,321.08Z" transform="translate(-102.015 -181.559)" fill="#f8ad27"/>
      <path id="Path_64929" data-name="Path 64929" d="M729.275,358.195c-4.032.1-8.048.739-12.1.047-4.243-.724-10.188-6.084-11.139-10.219-.124-.517-.264-1.065.465-1.194.858-.155,1.752-.946,2.584.16,1.034,1.385,2.067,2.755,3.153,4.088a8.647,8.647,0,0,0,7.6,3.587c3.773-.243,7.557-.367,11.335-.543a13.979,13.979,0,0,1,4.088.439c5.422,1.344,7.267,4.812,5.355,10.1-.15.4-.336.791-.476,1.2-1.452,4.213-.75,5.52,3.618,6.719,2.74.749,2.915,1.168,1.794,3.587a1.538,1.538,0,0,1-1.825.967c-7.086-.579-10.28-5.288-8.1-12.027,1.871-5.784,1.091-6.854-5.029-6.905Z" transform="translate(-341.075 -205.503)" fill="#f8ad27"/>
      <path id="Path_64930" data-name="Path 64930" d="M174.016,16.242c-5.406.15-8.518-2.884-10.58-7.34-2.61-5.649-3.241-5.913-9.1-3.463-2.765,1.158-5.391,2.75-8.42,3.148-3.5.465-6.89.155-9.681-2.331-.61-.517-1.737-1.034-.667-2.264.941-1.07,1.442-.222,2.067.274,2.817,2.2,5.877,1.551,8.838.517,2.119-.693,4.094-1.856,6.13-2.719A31.591,31.591,0,0,1,157.445.343c4.052-.961,6.1,0,8.1,3.644.253.45.476.915.693,1.385,3.1,6.786,6.115,8.068,13.087,5.572,2.207-.791,2.962-.191,2.729,2.042-.093.863-.667,1.147-1.246,1.489A12.136,12.136,0,0,1,174.016,16.242Z" transform="translate(-65.296 16.068)" fill="#ba174a"/>
      <path id="Path_64931" data-name="Path 64931" d="M827.86,337.33c1.3-.031,2.155-.072,2.068,1.1-.067,1.034.47,2.274-1.179,2.7-1.99.517-3.959,1.132-5.9,1.809a23.393,23.393,0,0,0-8.916,5.954c-4.652,4.719-5.169,10.281-3.267,16.2.517,1.592.083,2.233-1.091,2.822-1.411.708-1.592-.682-1.9-1.385-2.465-5.717-3.05-11.475.47-16.984A26.378,26.378,0,0,1,827.86,337.33Z" transform="translate(-389.26 -201.111)" fill="#f8ad27"/>
      <path id="Path_64932" data-name="Path 64932" d="M241.541,372.489c-3.236,0-4.9-2.776-3.215-5.727a16.937,16.937,0,0,1,6.611-6.363,4.236,4.236,0,0,1,5.267.6c1.416,1.406,1.1,3.158.413,4.822C249.077,369.554,245.025,372.51,241.541,372.489Z" transform="translate(-114.835 -211.952)" fill="#f8ad27"/>
      <path id="Path_64933" data-name="Path 64933" d="M773.8,245.083c3.256-.026,5.391,1.907,5.412,5.127a5.985,5.985,0,0,0,1.483,3.97,2.77,2.77,0,0,1,.377,3.349c-.739,1.235-2.016,1.168-3.225.956-4.652-.8-8.27-5.541-7.753-10.048C770.358,246.236,771.448,244.97,773.8,245.083Z" transform="translate(-372.047 -156.546)" fill="#f8ad27"/>
      <path id="Path_64934" data-name="Path 64934" d="M499.713,412.022c-.088,3.489-.941,5.851-2.967,7.681a3.24,3.24,0,0,1-3.541.868,3.474,3.474,0,0,1-2.274-3.153c-.186-2.817.977-5.37,1.943-7.887.636-1.649,2.4-1.876,4-1.354A3.754,3.754,0,0,1,499.713,412.022Z" transform="translate(-237.189 -235.224)" fill="#f8ad27"/>
      <path id="Path_64935" data-name="Path 64935" d="M141.209,286.649c-4.212-.072-8.1-4.74-7.489-8.973a2.908,2.908,0,0,1,5.045-1.737,39.59,39.59,0,0,1,5.923,7.288C145.877,285.083,144.13,286.7,141.209,286.649Z" transform="translate(-64.587 -171.002)" fill="#f8ad27"/>
      <path id="Path_64936" data-name="Path 64936" d="M381.839,384.05c1.773,0,3.1.543,3.4,2.44s-.956,2.683-2.553,2.874a20.483,20.483,0,0,0-8.187,2.662,5.4,5.4,0,0,1-1.985.46c-1.065.145-2.155.088-2.615-1.075a2.269,2.269,0,0,1,.848-2.972C374.235,386.495,377.817,384.686,381.839,384.05Z" transform="translate(-178.615 -223.688)" fill="#ba174a"/>
      <path id="Path_64937" data-name="Path 64937" d="M418.444,454.084a7.086,7.086,0,0,1-2.259,5.686,4.223,4.223,0,0,1-6.435-1.1c-.574-1.116-.517-2.372.687-2.9s1.328-1.292,1.292-2.414c-.062-1.747-.569-3.866,2.207-4.078,2.093-.155,4.269,1.9,4.5,4.135a3.9,3.9,0,0,1,.005.667Z" transform="translate(-197.807 -255.2)" fill="#f8ad27"/>
      <path id="Path_64938" data-name="Path 64938" d="M484.595,298.911a3.163,3.163,0,0,1,2.44-3.572c1.783-.517,3.034.465,3.789,1.943a54.833,54.833,0,0,1,2.352,5.422c.486,1.277.465,2.584-.848,3.442a2.719,2.719,0,0,1-3.706-.486C486.7,303.811,484.543,302.137,484.595,298.911Z" transform="translate(-234.119 -180.762)" fill="#ba184a"/>
      <path id="Path_64939" data-name="Path 64939" d="M760.422,324.646c-.134,1.814-1.194,2.853-2.894,2.212a30.949,30.949,0,0,1-7.851-3.794,2.742,2.742,0,0,1-1.178-3.375,2.541,2.541,0,0,1,3.044-1.38,16.66,16.66,0,0,1,8.11,4.2,2.585,2.585,0,0,1,.77,2.14Z" transform="translate(-361.533 -191.89)" fill="#ba184b"/>
      <path id="Path_64940" data-name="Path 64940" d="M179.774,152.712c-2.31-.036-6.59-3.939-6.859-6.249-.238-2.067,1.153-3.406,3.1-2.786a9.217,9.217,0,0,1,5.991,6.233C182.56,151.575,181.733,152.743,179.774,152.712Z" transform="translate(-83.542 -107.483)" fill="#6d48fd"/>
      <path id="Path_64941" data-name="Path 64941" d="M758.419,424.284c-.078,1.494-.517,3.163-2.817,3.179-2.135,0-4.5-3.4-4.414-6.233.041-1.551.672-2.714,2.409-2.76C755.917,418.4,758.471,421.327,758.419,424.284Z" transform="translate(-362.936 -240.316)" fill="#6e48fd"/>
      <path id="Path_64942" data-name="Path 64942" d="M468.609,431.719a5.93,5.93,0,0,1,.744-2.982c.76-1.3,1.845-2.119,3.391-1.644,1.669.517,1.835,1.974,1.473,3.36s-.207,2.9-.465,4.321c-.233,1.261-.517,2.672-2.2,2.7-1.582,0-2.2-1.08-2.424-2.476Q468.862,433.352,468.609,431.719Z" transform="translate(-226.414 -244.418)" fill="#ba1a4c"/>
      <path id="Path_64943" data-name="Path 64943" d="M65.4,297.157a8.249,8.249,0,0,1,6.445,2.45,2.289,2.289,0,0,1,.47,3.044c-.718,1.085-1.8.879-2.786.465a12.281,12.281,0,0,0-3.908-1.241c-1.788-.1-3.1-.8-2.894-2.791S64.58,297.141,65.4,297.157Z" transform="translate(-30.311 -181.706)" fill="#6d47fd"/>
      <path id="Path_64944" data-name="Path 64944" d="M328.011,358.482a2.279,2.279,0,0,1-2.031-1.235c-.6-1.085-.062-1.938.7-2.75.641-.682,1.116-1.551,1.788-2.176,1.323-1.287,2.92-1.664,4.378-.388s1.034,2.843.16,4.218C332.027,357.722,330.461,358.383,328.011,358.482Z" transform="translate(-157.381 -207.79)" fill="#f8ad28"/>
      <path id="Path_64945" data-name="Path 64945" d="M239.53,265.971c-.243,1.613-.176,3.4-1.551,4.7s-2.853.966-3.546-.9a7.463,7.463,0,0,1,0-4.559c.419-1.69,1.034-3.287,3.168-2.977S239.406,264.379,239.53,265.971Z" transform="translate(-113.103 -164.816)" fill="#6f4afd"/>
      <path id="Path_64946" data-name="Path 64946" d="M800.568,330.781c.093,3.365-2.5,6.838-4.528,6.792a1.87,1.87,0,0,1-2.021-2.114c-.041-3.494,1.912-6.414,4.254-6.388C799.886,329.085,800.527,330.026,800.568,330.781Z" transform="translate(-383.63 -197.126)" fill="#ba1a4c"/>
      <path id="Path_64947" data-name="Path 64947" d="M449.27,486.278h-3.1c-.951,0-1.752-.31-1.98-1.287a2.039,2.039,0,0,1,1.034-2.2c1.37-1.034,6.719-1.1,8.27-.145a1.993,1.993,0,0,1,1.2,2.068,1.851,1.851,0,0,1-2.067,1.551H449.28Z" transform="translate(-214.59 -270.999)" fill="#6e48fd"/>
      <path id="Path_64948" data-name="Path 64948" d="M473.07,357.346a10.624,10.624,0,0,1-.124,1.778,2.613,2.613,0,0,1-2.119,2.274c-1.256.181-1.794-.806-2.269-1.711a5.737,5.737,0,0,1-.625-3.468c.186-1.365.367-2.894,2.212-2.9,1.716,0,2.527,1.2,2.848,2.75a6.56,6.56,0,0,1,0,1.277Z" transform="translate(-226.062 -208.842)" fill="#6f4afd"/>
      <path id="Path_64949" data-name="Path 64949" d="M452.137,455.935A1.949,1.949,0,0,1,449.3,458c-1.654-.61-3.716-3.82-3.5-5.531s1.2-2.393,2.863-1.669A7.585,7.585,0,0,1,452.137,455.935Z" transform="translate(-215.389 -255.8)" fill="#6e49fd"/>
      <path id="Path_64950" data-name="Path 64950" d="M93.042,380.928c2.285-.072,4.523,1.918,4.559,3.845a2.035,2.035,0,0,1-2.192,2.264c-1.9.129-4.486-2.042-4.564-3.778C90.763,381.616,91.766,381.016,93.042,380.928Z" transform="translate(-43.902 -222.179)" fill="#ba194b"/>
      <path id="Path_64951" data-name="Path 64951" d="M218.059,379.374c-.041,1.365-.253,2.636-2,2.714-1.592.067-3.1-1.969-3.055-4.094.031-1.277.351-2.455,1.9-2.559C216.622,375.316,218.1,377.239,218.059,379.374Z" transform="translate(-102.925 -219.524)" fill="#bb1d4f"/>
      <path id="Path_64952" data-name="Path 64952" d="M600.59,183.838c.274-1.551-.351-3.773,2.3-3.758,1.644,0,2.145,1.282,1.938,2.708-.253,1.752-.465,3.933-2.646,4.135C600.078,187.089,600.771,185.073,600.59,183.838Z" transform="translate(-290.178 -125.144)" fill="#6d48fd"/>
      <path id="Path_64953" data-name="Path 64953" d="M441.914,393.864c-.078,1.235-.517,2.29-2.068,2.336a1.762,1.762,0,0,1-2.068-2,2.252,2.252,0,0,1,2.068-2.5C441.211,391.585,441.852,392.459,441.914,393.864Z" transform="translate(-211.518 -227.383)" fill="#f8af2d"/>
    </g>
  </g>
</svg>
