<svg width="0" height="0" class="hidden">
  <symbol xmlns="http://www.w3.org/2000/svg" viewBox="0 0 22.874 21.73" id="bag-alt">
    <path d="M19.443 4.575h-3.431V3.431A3.431 3.431 0 0012.581 0h-2.288a3.431 3.431 0 00-3.431 3.431v1.144H3.431A3.431 3.431 0 000 8.006V18.3a3.431 3.431 0 003.431 3.43h16.012a3.431 3.431 0 003.431-3.43V8.006a3.431 3.431 0 00-3.431-3.431zM9.149 3.431a1.144 1.144 0 011.144-1.144h2.287a1.144 1.144 0 011.144 1.144v1.144H9.149zM20.586 18.3a1.144 1.144 0 01-1.144 1.144H3.431A1.144 1.144 0 012.287 18.3v-6.29a24.829 24.829 0 009.149 1.75 24.875 24.875 0 009.149-1.75zm0-8.795a22.748 22.748 0 01-18.3 0v-1.5a1.144 1.144 0 011.145-1.143h16.012a1.144 1.144 0 011.144 1.144z"></path>
  </symbol>
  <symbol xmlns="http://www.w3.org/2000/svg" viewBox="0 0 19.247 24" id="bell">
    <path d="M16.841 13.449V9.624a7.218 7.218 0 00-6.015-7.109V1.2a1.203 1.203 0 10-2.406 0v1.314a7.218 7.218 0 00-6.015 7.109v3.825A3.609 3.609 0 000 16.841v2.406a1.2 1.2 0 001.2 1.2h3.78a4.812 4.812 0 009.287 0h3.777a1.2 1.2 0 001.2-1.2v-2.406a3.609 3.609 0 00-2.406-3.392zM4.812 9.624a4.812 4.812 0 019.624 0v3.609H4.812zm4.812 12.029a2.406 2.406 0 01-2.069-1.2h4.138a2.406 2.406 0 01-2.069 1.2zm7.218-3.609H2.406v-1.2a1.2 1.2 0 011.2-1.2h12.032a1.2 1.2 0 011.2 1.2z"></path>
  </symbol>
  <symbol xmlns="http://www.w3.org/2000/svg" viewBox="0 0 23.99 23.99" id="comments-alt">
    <path d="M20.391 7.2h-1.2V3.6a3.6 3.6 0 00-3.6-3.6H3.6A3.6 3.6 0 000 3.6v14.392a1.2 1.2 0 00.744 1.1 1.008 1.008 0 00.456.1 1.2 1.2 0 00.852-.348l3.371-3.383H7.2v1.727a3.6 3.6 0 003.6 3.6h8.3l2.843 2.855a1.2 1.2 0 00.852.348 1.008 1.008 0 00.456-.1 1.2 1.2 0 00.744-1.1V10.8a3.6 3.6 0 00-3.604-3.6zM7.2 10.8v2.267H4.93a1.2 1.2 0 00-.852.348L2.4 15.1V3.6a1.2 1.2 0 011.2-1.2h11.993a1.2 1.2 0 011.2 1.2v3.6h-6a3.6 3.6 0 00-3.6 3.6zm14.394 9.1l-1.2-1.2a1.2 1.2 0 00-.852-.36H10.8a1.2 1.2 0 01-1.2-1.2V10.8a1.2 1.2 0 011.2-1.2h9.6a1.2 1.2 0 011.2 1.2z"></path>
  </symbol>
  <symbol xmlns="http://www.w3.org/2000/svg" viewBox="0 0 23.37 23.37" id="create-dashboard">
    <path d="M9.088 12.983H1.3a1.3 1.3 0 00-1.3 1.3v7.79a1.3 1.3 0 001.3 1.3h7.79a1.3 1.3 0 001.3-1.3v-7.79a1.3 1.3 0 00-1.302-1.3zm-1.3 7.79H2.6V15.58h5.19zM22.072 0h-7.79a1.3 1.3 0 00-1.3 1.3v7.79a1.3 1.3 0 001.3 1.3h7.79a1.3 1.3 0 001.3-1.3V1.3a1.3 1.3 0 00-1.3-1.3zm-1.3 7.79H15.58V2.6h5.193zm1.3 9.088h-2.6v-2.6a1.3 1.3 0 10-2.6 0v2.6h-2.6a1.3 1.3 0 100 2.6h2.6v2.6a1.3 1.3 0 102.6 0v-2.6h2.6a1.3 1.3 0 100-2.6zM9.088 0H1.3A1.3 1.3 0 000 1.3v7.79a1.3 1.3 0 001.3 1.3h7.79a1.3 1.3 0 001.3-1.3V1.3A1.3 1.3 0 009.088 0zm-1.3 7.79H2.6V2.6h5.19z"></path>
  </symbol>
  <symbol xmlns="http://www.w3.org/2000/svg" viewBox="0 0 23.575 24" id="setting">
    <path d="M21.649 12.792a1.2 1.2 0 010-1.584l1.536-1.728a1.2 1.2 0 00.144-1.4l-2.4-4.151a1.2 1.2 0 00-1.286-.58l-2.254.452a1.2 1.2 0 01-1.38-.792l-.732-2.2a1.2 1.2 0 00-1.139-.808H9.343a1.2 1.2 0 00-1.2.816l-.672 2.2a1.2 1.2 0 01-1.38.792l-2.32-.46a1.2 1.2 0 00-1.2.576l-2.4 4.151a1.2 1.2 0 00.12 1.4l1.524 1.728a1.2 1.2 0 010 1.584L.292 14.519a1.2 1.2 0 00-.12 1.4l2.4 4.151a1.2 1.2 0 001.284.576l2.256-.456a1.2 1.2 0 011.38.792l.732 2.2a1.2 1.2 0 001.2.816h4.8a1.2 1.2 0 001.14-.816l.732-2.2a1.2 1.2 0 011.38-.792l2.256.456a1.2 1.2 0 001.284-.576l2.4-4.151a1.2 1.2 0 00-.144-1.4zm-1.788 1.609l.96 1.08-1.536 2.664-1.416-.288a3.6 3.6 0 00-4.139 2.4l-.456 1.344h-3.072l-.432-1.368a3.6 3.6 0 00-4.139-2.4l-1.416.288-1.56-2.652.96-1.08a3.6 3.6 0 000-4.8l-.96-1.08 1.536-2.64 1.416.288a3.6 3.6 0 004.139-2.4l.456-1.356h3.072l.456 1.368a3.6 3.6 0 004.139 2.4l1.416-.288 1.536 2.664-.96 1.08a3.6 3.6 0 000 4.775zm-8.118-7.2a4.8 4.8 0 104.8 4.8 4.8 4.8 0 00-4.8-4.8zm0 7.2a2.4 2.4 0 112.4-2.4 2.4 2.4 0 01-2.4 2.4z"></path>
  </symbol>
  <symbol xmlns="http://www.w3.org/2000/svg" viewBox="0 0 22.874 23" id="user">
    <path d="M15.684 12.315a6.9 6.9 0 10-8.528 0 11.493 11.493 0 00-7.149 9.4 1.157 1.157 0 102.3.253 9.195 9.195 0 0118.274 0 1.149 1.149 0 001.149 1.023h.126a1.149 1.149 0 001.011-1.264 11.493 11.493 0 00-7.183-9.413zm-4.264-.816a4.6 4.6 0 114.6-4.6 4.6 4.6 0 01-4.6 4.6z"></path>
  </symbol>
  <symbol xmlns="http://www.w3.org/2000/svg" viewBox="0 0 16.909 20" id="location">
    <path d="M17.956,4.472A8.459,8.459,0,1,0,5.992,16.436L11.246,21.7a1,1,0,0,0,1.416,0l5.294-5.314A8.424,8.424,0,0,0,17.956,4.472ZM16.53,14.96l-4.556,4.576L7.418,14.96a6.44,6.44,0,1,1,9.112,0ZM8.983,7.394a4.3,4.3,0,1,0,7.338,3.091,4.227,4.227,0,0,0-1.256-3.041,4.287,4.287,0,0,0-6.081-.05Zm4.676,4.666a.96.96,0,1,0-.05,0Z" transform="translate(-3.515 -1.995)" fill="#270647"/>
  </symbol>
  <symbol xmlns="http://www.w3.org/2000/svg" viewBox="0 0 21.646 9.298" id="arrow-right">
    <path d="M16.467.53l4.119 4.119-4.119 4.119" fill="none" stroke="#270647" stroke-width="1.5"></path>
    <g transform="translate(0 3.899)" clip-path="url(#a)">
      <path d="M0 .754h20.586" fill="none" stroke="#270647" stroke-width="1.5"></path>
    </g>
  </symbol>
  <symbol xmlns="http://www.w3.org/2000/svg" viewBox="0 0 14.025 7.004" id="arrow-down">
    <path id="Path_61867" data-name="Path 61867" d="M7,0a1,1,0,0,0-.64.23l-6,5a1,1,0,0,0,1.28,1.54L7,2.292l5.36,4.32A1.025,1.025,0,1,0,13.631,5l-6-4.83A1,1,0,0,0,7,0Z" transform="translate(0 0)" fill="#270647"/>
  </symbol>
  <symbol xmlns="http://www.w3.org/2000/svg" viewBox="0 0 13 13" id="clock">
    <path id="clock" d="M10.514,8.912,9.15,8.125V5.25a.65.65,0,1,0-1.3,0V8.5a.65.65,0,0,0,.325.563l1.689.975a.65.65,0,0,0,.65-1.126ZM8.5,2A6.5,6.5,0,1,0,15,8.5,6.5,6.5,0,0,0,8.5,2Zm0,11.7a5.2,5.2,0,1,1,5.2-5.2A5.2,5.2,0,0,1,8.5,13.7Z" transform="translate(-2 -2)" fill="#feefd4"/>
  </symbol>
  <symbol xmlns="http://www.w3.org/2000/svg" viewBox="0 0 17.199 17.199" id="filling">
    <path d="M.005 8.6h17.2a8.6 8.6 0 11-17.2 0z" fill="#f5aa25"></path>
    <path d="M.001 8.6a8.6 8.6 0 1117.2 0z" fill="#4c2275"></path>
  </symbol>
  <symbol xmlns="http://www.w3.org/2000/svg" viewBox="0 0 17.199 17.199" id="completed">
    <circle cx="8.6" cy="8.6" fill="#4c2275" r="8.6"></circle>
  </symbol>
  <symbol xmlns="http://www.w3.org/2000/svg" viewBox="0 0 17.199 17.199" id="booked">
    <circle cx="8.6" cy="8.6" fill="#f5aa25" r="8.6"></circle>
  </symbol>
  <symbol xmlns="http://www.w3.org/2000/svg" viewBox="0 0 17.199 17.199" id="live">
    <circle cx="8.6" cy="8.6" fill="#f5aa25" r="8.6"></circle>
    <circle cx="3.162" cy="3.162" transform="translate(5.438 5.438)" fill="#4c2275" r="3.162"></circle>
  </symbol>
  <symbol xmlns="http://www.w3.org/2000/svg" viewBox="0 0 17.199 17.199" id="cancelled">
    <path d="M14.68 2.519L2.52 14.68A8.6 8.6 0 1114.68 2.518z" fill="#f5aa25"></path>
    <path d="M14.679 2.519a8.6 8.6 0 11-12.16 12.162z" fill="#4c2275"></path>
  </symbol>
  <symbol xmlns="http://www.w3.org/2000/svg" viewBox="0 0 19.017 17.898" id="star">
  <path id="Icon" d="M18.981,6.637a.682.682,0,0,0-.658-.47L12.1,6.152,10.142.464A.668.668,0,0,0,9.479,0a.681.681,0,0,0-.653.476L6.989,6.152l-6.3.015a.682.682,0,0,0-.658.469A.667.667,0,0,0,.283,7.4L5.21,10.983,3.277,17a.668.668,0,0,0,.254.761.7.7,0,0,0,.408.133.692.692,0,0,0,.4-.129l5.194-3.61,5.142,3.607a.689.689,0,0,0,.812,0,.668.668,0,0,0,.255-.76l-1.935-6.023L18.734,7.4a.669.669,0,0,0,.248-.763" fill="#ffc259"/>
</symbol>
</svg>
